<svg xmlns="http://www.w3.org/2000/svg" xmlns:xlink="http://www.w3.org/1999/xlink" contentStyleType="text/css" height="235px" preserveAspectRatio="none" style="width:134px;height:235px;background:#FFFFFF;" version="1.1" viewBox="0 0 134 235" width="134px" zoomAndPan="magnify"><defs/><g><!--class Car--><g id="elem_Car"><rect codeLine="1" fill="#F1F1F1" height="113.1875" id="Car" rx="2.5" ry="2.5" style="stroke:#181818;stroke-width:0.5;" width="120" x="7" y="7"/><ellipse cx="50.8" cy="23" fill="#ADD1B2" rx="11" ry="11" style="stroke:#181818;stroke-width:1.0;"/><path d="M53.1438,18.6719 C52.2063,18.2344 51.6125,18.0938 50.7375,18.0938 C48.1125,18.0938 46.1125,20.1719 46.1125,22.8906 L46.1125,24.0156 C46.1125,26.5938 48.2219,28.4844 51.1125,28.4844 C52.3313,28.4844 53.4875,28.1875 54.2375,27.6406 C54.8156,27.2344 55.1438,26.7813 55.1438,26.3906 C55.1438,25.9375 54.7531,25.5469 54.2844,25.5469 C54.0656,25.5469 53.8625,25.625 53.675,25.8125 C53.2219,26.2969 53.2219,26.2969 53.0344,26.3906 C52.6125,26.6563 51.925,26.7813 51.1594,26.7813 C49.1125,26.7813 47.8156,25.6875 47.8156,23.9844 L47.8156,22.8906 C47.8156,21.1094 49.0656,19.7969 50.8,19.7969 C51.3781,19.7969 51.9875,19.9531 52.4563,20.2031 C52.9406,20.4844 53.1125,20.7031 53.2063,21.1094 C53.2688,21.5156 53.3,21.6406 53.4406,21.7656 C53.5813,21.9063 53.8156,22.0156 54.0344,22.0156 C54.3,22.0156 54.5656,21.875 54.7375,21.6563 C54.8469,21.5 54.8781,21.3125 54.8781,20.8906 L54.8781,19.4688 C54.8781,19.0313 54.8625,18.9063 54.7688,18.75 C54.6125,18.4844 54.3313,18.3438 54.0344,18.3438 C53.7375,18.3438 53.5344,18.4375 53.3156,18.75 L53.1438,18.6719 Z " fill="#000000"/><text fill="#000000" font-family="sans-serif" font-size="14" lengthAdjust="spacing" textLength="24" x="71.2" y="27.8467">Car</text><line style="stroke:#181818;stroke-width:0.5;" x1="8" x2="126" y1="39" y2="39"/><line style="stroke:#181818;stroke-width:0.5;" x1="8" x2="126" y1="47" y2="47"/><ellipse cx="18" cy="60.6484" fill="#84BE84" rx="3" ry="3" style="stroke:#038048;stroke-width:1.0;"/><text fill="#000000" font-family="sans-serif" font-size="14" lengthAdjust="spacing" textLength="94" x="27" y="63.9951">startEngine()</text><ellipse cx="18" cy="76.9453" fill="#84BE84" rx="3" ry="3" style="stroke:#038048;stroke-width:1.0;"/><text fill="#000000" font-family="sans-serif" font-size="14" lengthAdjust="spacing" textLength="92" x="27" y="80.292">stopEngine()</text><ellipse cx="18" cy="93.2422" fill="#84BE84" rx="3" ry="3" style="stroke:#038048;stroke-width:1.0;"/><text fill="#000000" font-family="sans-serif" font-size="14" lengthAdjust="spacing" textLength="86" x="27" y="96.5889">accelerate()</text><ellipse cx="18" cy="109.5391" fill="#84BE84" rx="3" ry="3" style="stroke:#038048;stroke-width:1.0;"/><text fill="#000000" font-family="sans-serif" font-size="14" lengthAdjust="spacing" textLength="52" x="27" y="112.8857">brake()</text></g><!--class Engine--><g id="elem_Engine"><rect fill="#F1F1F1" height="48" id="Engine" rx="2.5" ry="2.5" style="stroke:#181818;stroke-width:0.5;" width="81" x="26.5" y="180"/><ellipse cx="41.5" cy="196" fill="#ADD1B2" rx="11" ry="11" style="stroke:#181818;stroke-width:1.0;"/><path d="M43.8438,191.6719 C42.9063,191.2344 42.3125,191.0938 41.4375,191.0938 C38.8125,191.0938 36.8125,193.1719 36.8125,195.8906 L36.8125,197.0156 C36.8125,199.5938 38.9219,201.4844 41.8125,201.4844 C43.0313,201.4844 44.1875,201.1875 44.9375,200.6406 C45.5156,200.2344 45.8438,199.7813 45.8438,199.3906 C45.8438,198.9375 45.4531,198.5469 44.9844,198.5469 C44.7656,198.5469 44.5625,198.625 44.375,198.8125 C43.9219,199.2969 43.9219,199.2969 43.7344,199.3906 C43.3125,199.6563 42.625,199.7813 41.8594,199.7813 C39.8125,199.7813 38.5156,198.6875 38.5156,196.9844 L38.5156,195.8906 C38.5156,194.1094 39.7656,192.7969 41.5,192.7969 C42.0781,192.7969 42.6875,192.9531 43.1563,193.2031 C43.6406,193.4844 43.8125,193.7031 43.9063,194.1094 C43.9688,194.5156 44,194.6406 44.1406,194.7656 C44.2813,194.9063 44.5156,195.0156 44.7344,195.0156 C45,195.0156 45.2656,194.875 45.4375,194.6563 C45.5469,194.5 45.5781,194.3125 45.5781,193.8906 L45.5781,192.4688 C45.5781,192.0313 45.5625,191.9063 45.4688,191.75 C45.3125,191.4844 45.0313,191.3438 44.7344,191.3438 C44.4375,191.3438 44.2344,191.4375 44.0156,191.75 L43.8438,191.6719 Z " fill="#000000"/><text fill="#000000" font-family="sans-serif" font-size="14" lengthAdjust="spacing" textLength="49" x="55.5" y="200.8467">Engine</text><line style="stroke:#181818;stroke-width:0.5;" x1="27.5" x2="106.5" y1="212" y2="212"/><line style="stroke:#181818;stroke-width:0.5;" x1="27.5" x2="106.5" y1="220" y2="220"/></g><!--link Car to Engine--><g id="link_Car_Engine"><path codeLine="7" d="M67,120.035 C67,140.9568 67,157.6181 67,173.9619 " fill="none" id="Car-to-Engine" style="stroke:#181818;stroke-width:1.0;"/><polygon fill="#181818" points="67,179.9619,71,170.9619,67,174.9619,63,170.9619,67,179.9619" style="stroke:#181818;stroke-width:1.0;"/></g><!--SRC=[Iyv9B2vMS4uiKgZcKb3GBYv9B2fnpKlFp4lLq8G8v1SWynEJarDpKeiIIw3yfAB4R12pbWjaXgwkdG94DG00]--></g></svg>