<svg xmlns="http://www.w3.org/2000/svg" xmlns:xlink="http://www.w3.org/1999/xlink" contentStyleType="text/css" height="333px" preserveAspectRatio="none" style="width:278px;height:333px;background:#FFFFFF;" version="1.1" viewBox="0 0 278 333" width="278px" zoomAndPan="magnify"><defs/><g><!--class Library--><g id="elem_Library"><rect codeLine="1" fill="#F1F1F1" height="145.7813" id="Library" rx="2.5" ry="2.5" style="stroke:#181818;stroke-width:0.5;" width="264" x="7" y="7"/><ellipse cx="109.75" cy="23" fill="#ADD1B2" rx="11" ry="11" style="stroke:#181818;stroke-width:1.0;"/><path d="M112.0938,18.6719 C111.1563,18.2344 110.5625,18.0938 109.6875,18.0938 C107.0625,18.0938 105.0625,20.1719 105.0625,22.8906 L105.0625,24.0156 C105.0625,26.5938 107.1719,28.4844 110.0625,28.4844 C111.2813,28.4844 112.4375,28.1875 113.1875,27.6406 C113.7656,27.2344 114.0938,26.7813 114.0938,26.3906 C114.0938,25.9375 113.7031,25.5469 113.2344,25.5469 C113.0156,25.5469 112.8125,25.625 112.625,25.8125 C112.1719,26.2969 112.1719,26.2969 111.9844,26.3906 C111.5625,26.6563 110.875,26.7813 110.1094,26.7813 C108.0625,26.7813 106.7656,25.6875 106.7656,23.9844 L106.7656,22.8906 C106.7656,21.1094 108.0156,19.7969 109.75,19.7969 C110.3281,19.7969 110.9375,19.9531 111.4063,20.2031 C111.8906,20.4844 112.0625,20.7031 112.1563,21.1094 C112.2188,21.5156 112.25,21.6406 112.3906,21.7656 C112.5313,21.9063 112.7656,22.0156 112.9844,22.0156 C113.25,22.0156 113.5156,21.875 113.6875,21.6563 C113.7969,21.5 113.8281,21.3125 113.8281,20.8906 L113.8281,19.4688 C113.8281,19.0313 113.8125,18.9063 113.7188,18.75 C113.5625,18.4844 113.2813,18.3438 112.9844,18.3438 C112.6875,18.3438 112.4844,18.4375 112.2656,18.75 L112.0938,18.6719 Z " fill="#000000"/><text fill="#000000" font-family="sans-serif" font-size="14" lengthAdjust="spacing" textLength="50" x="130.25" y="27.8467">Library</text><line style="stroke:#181818;stroke-width:0.5;" x1="8" x2="270" y1="39" y2="39"/><rect fill="none" height="6" style="stroke:#C82930;stroke-width:1.0;" width="6" x="15" y="49.6484"/><text fill="#000000" font-family="sans-serif" font-size="14" lengthAdjust="spacing" textLength="93" x="27" y="55.9951">name: String</text><rect fill="none" height="6" style="stroke:#C82930;stroke-width:1.0;" width="6" x="15" y="65.9453"/><text fill="#000000" font-family="sans-serif" font-size="14" lengthAdjust="spacing" textLength="111" x="27" y="72.292">location: String</text><rect fill="none" height="6" style="stroke:#C82930;stroke-width:1.0;" width="6" x="15" y="82.2422"/><text fill="#000000" font-family="sans-serif" font-size="14" lengthAdjust="spacing" textLength="138" x="27" y="88.5889">books: List&lt;Book&gt;</text><line style="stroke:#181818;stroke-width:0.5;" x1="8" x2="270" y1="95.8906" y2="95.8906"/><ellipse cx="18" cy="109.5391" fill="#84BE84" rx="3" ry="3" style="stroke:#038048;stroke-width:1.0;"/><text fill="#000000" font-family="sans-serif" font-size="14" lengthAdjust="spacing" textLength="195" x="27" y="112.8857">addBook(book: Book): void</text><ellipse cx="18" cy="125.8359" fill="#84BE84" rx="3" ry="3" style="stroke:#038048;stroke-width:1.0;"/><text fill="#000000" font-family="sans-serif" font-size="14" lengthAdjust="spacing" textLength="224" x="27" y="129.1826">removeBook(book: Book): void</text><ellipse cx="18" cy="142.1328" fill="#84BE84" rx="3" ry="3" style="stroke:#038048;stroke-width:1.0;"/><text fill="#000000" font-family="sans-serif" font-size="14" lengthAdjust="spacing" textLength="238" x="27" y="145.4795">getAvailableBooks(): List&lt;Book&gt;</text></g><!--class Book--><g id="elem_Book"><rect codeLine="11" fill="#F1F1F1" height="113.1875" id="Book" rx="2.5" ry="2.5" style="stroke:#181818;stroke-width:0.5;" width="156" x="61" y="213"/><ellipse cx="116.25" cy="229" fill="#ADD1B2" rx="11" ry="11" style="stroke:#181818;stroke-width:1.0;"/><path d="M118.5938,224.6719 C117.6563,224.2344 117.0625,224.0938 116.1875,224.0938 C113.5625,224.0938 111.5625,226.1719 111.5625,228.8906 L111.5625,230.0156 C111.5625,232.5938 113.6719,234.4844 116.5625,234.4844 C117.7813,234.4844 118.9375,234.1875 119.6875,233.6406 C120.2656,233.2344 120.5938,232.7813 120.5938,232.3906 C120.5938,231.9375 120.2031,231.5469 119.7344,231.5469 C119.5156,231.5469 119.3125,231.625 119.125,231.8125 C118.6719,232.2969 118.6719,232.2969 118.4844,232.3906 C118.0625,232.6563 117.375,232.7813 116.6094,232.7813 C114.5625,232.7813 113.2656,231.6875 113.2656,229.9844 L113.2656,228.8906 C113.2656,227.1094 114.5156,225.7969 116.25,225.7969 C116.8281,225.7969 117.4375,225.9531 117.9063,226.2031 C118.3906,226.4844 118.5625,226.7031 118.6563,227.1094 C118.7188,227.5156 118.75,227.6406 118.8906,227.7656 C119.0313,227.9063 119.2656,228.0156 119.4844,228.0156 C119.75,228.0156 120.0156,227.875 120.1875,227.6563 C120.2969,227.5 120.3281,227.3125 120.3281,226.8906 L120.3281,225.4688 C120.3281,225.0313 120.3125,224.9063 120.2188,224.75 C120.0625,224.4844 119.7813,224.3438 119.4844,224.3438 C119.1875,224.3438 118.9844,224.4375 118.7656,224.75 L118.5938,224.6719 Z " fill="#000000"/><text fill="#000000" font-family="sans-serif" font-size="14" lengthAdjust="spacing" textLength="37" x="136.75" y="233.8467">Book</text><line style="stroke:#181818;stroke-width:0.5;" x1="62" x2="216" y1="245" y2="245"/><rect fill="none" height="6" style="stroke:#C82930;stroke-width:1.0;" width="6" x="69" y="255.6484"/><text fill="#000000" font-family="sans-serif" font-size="14" lengthAdjust="spacing" textLength="84" x="81" y="261.9951">title: String</text><rect fill="none" height="6" style="stroke:#C82930;stroke-width:1.0;" width="6" x="69" y="271.9453"/><text fill="#000000" font-family="sans-serif" font-size="14" lengthAdjust="spacing" textLength="100" x="81" y="278.292">author: String</text><rect fill="none" height="6" style="stroke:#C82930;stroke-width:1.0;" width="6" x="69" y="288.2422"/><text fill="#000000" font-family="sans-serif" font-size="14" lengthAdjust="spacing" textLength="86" x="81" y="294.5889">ISBN: String</text><rect fill="none" height="6" style="stroke:#C82930;stroke-width:1.0;" width="6" x="69" y="304.5391"/><text fill="#000000" font-family="sans-serif" font-size="14" lengthAdjust="spacing" textLength="130" x="81" y="310.8857">available: boolean</text><line style="stroke:#181818;stroke-width:0.5;" x1="62" x2="216" y1="318.1875" y2="318.1875"/></g><!--link Library to Book--><g id="link_Library_Book"><path codeLine="17" d="M139,153.224 C139,173.032 139,194.194 139,212.91 " fill="none" id="Library-Book" style="stroke:#181818;stroke-width:1.0;"/><text fill="#000000" font-family="sans-serif" font-size="13" lengthAdjust="spacing" textLength="8" x="130.6313" y="172.7488">1</text><text fill="#000000" font-family="sans-serif" font-size="13" lengthAdjust="spacing" textLength="23" x="114.5266" y="201.7619">0..*</text></g><!--SRC=[TK_D2i8m3BxtAK9FcxAXroA2kmt4ovuWsyeiTWsqSI3YkzjE1jl1MxwVvFlIMGm1hgRrw5_m5W25mr4hQDWRDoHigKCsvDPSI_G8Aku5FbLnFel8xh7l4yYIgY2DkOA9J9z4hqUQz7zzq7oPq5XixUmAMRu9-0ZHpMKJ_3LbmtPJ5Pzy9xzcwgQwRHnBX8BOmcfqyV3olZnAA0gGXxBSoJdd2m00]--></g></svg>