<svg xmlns="http://www.w3.org/2000/svg" xmlns:xlink="http://www.w3.org/1999/xlink" contentStyleType="text/css" height="170px" preserveAspectRatio="none" style="width:95px;height:170px;background:#FFFFFF;" version="1.1" viewBox="0 0 95 170" width="95px" zoomAndPan="magnify"><defs/><g><!--class Car--><g id="elem_Car"><rect codeLine="1" fill="#F1F1F1" height="48" id="Car" rx="2.5" ry="2.5" style="stroke:#181818;stroke-width:0.5;" width="56" x="19.5" y="7"/><ellipse cx="34.5" cy="23" fill="#ADD1B2" rx="11" ry="11" style="stroke:#181818;stroke-width:1.0;"/><path d="M36.8438,18.6719 C35.9063,18.2344 35.3125,18.0938 34.4375,18.0938 C31.8125,18.0938 29.8125,20.1719 29.8125,22.8906 L29.8125,24.0156 C29.8125,26.5938 31.9219,28.4844 34.8125,28.4844 C36.0313,28.4844 37.1875,28.1875 37.9375,27.6406 C38.5156,27.2344 38.8438,26.7813 38.8438,26.3906 C38.8438,25.9375 38.4531,25.5469 37.9844,25.5469 C37.7656,25.5469 37.5625,25.625 37.375,25.8125 C36.9219,26.2969 36.9219,26.2969 36.7344,26.3906 C36.3125,26.6563 35.625,26.7813 34.8594,26.7813 C32.8125,26.7813 31.5156,25.6875 31.5156,23.9844 L31.5156,22.8906 C31.5156,21.1094 32.7656,19.7969 34.5,19.7969 C35.0781,19.7969 35.6875,19.9531 36.1563,20.2031 C36.6406,20.4844 36.8125,20.7031 36.9063,21.1094 C36.9688,21.5156 37,21.6406 37.1406,21.7656 C37.2813,21.9063 37.5156,22.0156 37.7344,22.0156 C38,22.0156 38.2656,21.875 38.4375,21.6563 C38.5469,21.5 38.5781,21.3125 38.5781,20.8906 L38.5781,19.4688 C38.5781,19.0313 38.5625,18.9063 38.4688,18.75 C38.3125,18.4844 38.0313,18.3438 37.7344,18.3438 C37.4375,18.3438 37.2344,18.4375 37.0156,18.75 L36.8438,18.6719 Z " fill="#000000"/><text fill="#000000" font-family="sans-serif" font-size="14" lengthAdjust="spacing" textLength="24" x="48.5" y="27.8467">Car</text><line style="stroke:#181818;stroke-width:0.5;" x1="20.5" x2="74.5" y1="39" y2="39"/><line style="stroke:#181818;stroke-width:0.5;" x1="20.5" x2="74.5" y1="47" y2="47"/></g><!--class Engine--><g id="elem_Engine"><rect codeLine="2" fill="#F1F1F1" height="48" id="Engine" rx="2.5" ry="2.5" style="stroke:#181818;stroke-width:0.5;" width="81" x="7" y="115"/><ellipse cx="22" cy="131" fill="#ADD1B2" rx="11" ry="11" style="stroke:#181818;stroke-width:1.0;"/><path d="M24.3438,126.6719 C23.4063,126.2344 22.8125,126.0938 21.9375,126.0938 C19.3125,126.0938 17.3125,128.1719 17.3125,130.8906 L17.3125,132.0156 C17.3125,134.5938 19.4219,136.4844 22.3125,136.4844 C23.5313,136.4844 24.6875,136.1875 25.4375,135.6406 C26.0156,135.2344 26.3438,134.7813 26.3438,134.3906 C26.3438,133.9375 25.9531,133.5469 25.4844,133.5469 C25.2656,133.5469 25.0625,133.625 24.875,133.8125 C24.4219,134.2969 24.4219,134.2969 24.2344,134.3906 C23.8125,134.6563 23.125,134.7813 22.3594,134.7813 C20.3125,134.7813 19.0156,133.6875 19.0156,131.9844 L19.0156,130.8906 C19.0156,129.1094 20.2656,127.7969 22,127.7969 C22.5781,127.7969 23.1875,127.9531 23.6563,128.2031 C24.1406,128.4844 24.3125,128.7031 24.4063,129.1094 C24.4688,129.5156 24.5,129.6406 24.6406,129.7656 C24.7813,129.9063 25.0156,130.0156 25.2344,130.0156 C25.5,130.0156 25.7656,129.875 25.9375,129.6563 C26.0469,129.5 26.0781,129.3125 26.0781,128.8906 L26.0781,127.4688 C26.0781,127.0313 26.0625,126.9063 25.9688,126.75 C25.8125,126.4844 25.5313,126.3438 25.2344,126.3438 C24.9375,126.3438 24.7344,126.4375 24.5156,126.75 L24.3438,126.6719 Z " fill="#000000"/><text fill="#000000" font-family="sans-serif" font-size="14" lengthAdjust="spacing" textLength="49" x="36" y="135.8467">Engine</text><line style="stroke:#181818;stroke-width:0.5;" x1="8" x2="87" y1="147" y2="147"/><line style="stroke:#181818;stroke-width:0.5;" x1="8" x2="87" y1="155" y2="155"/></g><!--link Car to Engine--><g id="link_Car_Engine"><path codeLine="4" d="M47.5,55 C47.5,72.6584 47.5,90.9408 47.5,108.6784 " fill="none" id="Car-to-Engine" style="stroke:#181818;stroke-width:1.0;"/><polygon fill="#181818" points="47.5,114.6784,51.5,105.6784,47.5,109.6784,43.5,105.6784,47.5,114.6784" style="stroke:#181818;stroke-width:1.0;"/></g><!--SRC=[Iyv9B2vMS4uiuae6irppqZFpKhcuW28AkhfsK3u0]--></g></svg>