<svg xmlns="http://www.w3.org/2000/svg" xmlns:xlink="http://www.w3.org/1999/xlink" contentStyleType="text/css" height="254px" preserveAspectRatio="none" style="width:245px;height:254px;background:#FFFFFF;" version="1.1" viewBox="0 0 245 254" width="245px" zoomAndPan="magnify"><defs/><g><ellipse cx="121.25" cy="20" fill="#222222" rx="10" ry="10" style="stroke:#222222;stroke-width:1.0;"/><rect fill="#F1F1F1" height="33.9688" rx="12.5" ry="12.5" style="stroke:#181818;stroke-width:0.5;" width="100" x="71.25" y="50"/><text fill="#000000" font-family="sans-serif" font-size="12" lengthAdjust="spacing" textLength="80" x="81.25" y="71.1387">Start Process</text><polygon fill="#F1F1F1" points="94.75,103.9688,147.75,103.9688,159.75,115.9688,147.75,127.9688,94.75,127.9688,82.75,115.9688,94.75,103.9688" style="stroke:#181818;stroke-width:0.5;"/><text fill="#000000" font-family="sans-serif" font-size="11" lengthAdjust="spacing" textLength="53" x="94.75" y="119.7769">Condition</text><text fill="#000000" font-family="sans-serif" font-size="11" lengthAdjust="spacing" textLength="21" x="61.75" y="113.3745">Yes</text><text fill="#000000" font-family="sans-serif" font-size="11" lengthAdjust="spacing" textLength="15" x="159.75" y="113.3745">No</text><rect fill="#F1F1F1" height="33.9688" rx="12.5" ry="12.5" style="stroke:#181818;stroke-width:0.5;" width="99" x="11" y="137.9688"/><text fill="#000000" font-family="sans-serif" font-size="12" lengthAdjust="spacing" textLength="79" x="21" y="159.1074">Action If True</text><rect fill="#F1F1F1" height="33.9688" rx="12.5" ry="12.5" style="stroke:#181818;stroke-width:0.5;" width="104" x="130" y="137.9688"/><text fill="#000000" font-family="sans-serif" font-size="12" lengthAdjust="spacing" textLength="84" x="140" y="159.1074">Action If False</text><polygon fill="#F1F1F1" points="121.25,177.9375,133.25,189.9375,121.25,201.9375,109.25,189.9375,121.25,177.9375" style="stroke:#181818;stroke-width:0.5;"/><ellipse cx="121.25" cy="232.9375" fill="none" rx="11" ry="11" style="stroke:#222222;stroke-width:1.0;"/><ellipse cx="121.25" cy="232.9375" fill="#222222" rx="6" ry="6" style="stroke:#222222;stroke-width:1.0;"/><line style="stroke:#181818;stroke-width:1.0;" x1="121.25" x2="121.25" y1="30" y2="50"/><polygon fill="#181818" points="117.25,40,121.25,50,125.25,40,121.25,44" style="stroke:#181818;stroke-width:1.0;"/><line style="stroke:#181818;stroke-width:1.0;" x1="82.75" x2="60.5" y1="115.9688" y2="115.9688"/><line style="stroke:#181818;stroke-width:1.0;" x1="60.5" x2="60.5" y1="115.9688" y2="137.9688"/><polygon fill="#181818" points="56.5,127.9688,60.5,137.9688,64.5,127.9688,60.5,131.9688" style="stroke:#181818;stroke-width:1.0;"/><line style="stroke:#181818;stroke-width:1.0;" x1="159.75" x2="182" y1="115.9688" y2="115.9688"/><line style="stroke:#181818;stroke-width:1.0;" x1="182" x2="182" y1="115.9688" y2="137.9688"/><polygon fill="#181818" points="178,127.9688,182,137.9688,186,127.9688,182,131.9688" style="stroke:#181818;stroke-width:1.0;"/><line style="stroke:#181818;stroke-width:1.0;" x1="60.5" x2="60.5" y1="171.9375" y2="189.9375"/><line style="stroke:#181818;stroke-width:1.0;" x1="60.5" x2="109.25" y1="189.9375" y2="189.9375"/><polygon fill="#181818" points="99.25,185.9375,109.25,189.9375,99.25,193.9375,103.25,189.9375" style="stroke:#181818;stroke-width:1.0;"/><line style="stroke:#181818;stroke-width:1.0;" x1="182" x2="182" y1="171.9375" y2="189.9375"/><line style="stroke:#181818;stroke-width:1.0;" x1="182" x2="133.25" y1="189.9375" y2="189.9375"/><polygon fill="#181818" points="143.25,185.9375,133.25,189.9375,143.25,193.9375,139.25,189.9375" style="stroke:#181818;stroke-width:1.0;"/><line style="stroke:#181818;stroke-width:1.0;" x1="121.25" x2="121.25" y1="83.9688" y2="103.9688"/><polygon fill="#181818" points="117.25,93.9688,121.25,103.9688,125.25,93.9688,121.25,97.9688" style="stroke:#181818;stroke-width:1.0;"/><line style="stroke:#181818;stroke-width:1.0;" x1="121.25" x2="121.25" y1="201.9375" y2="221.9375"/><polygon fill="#181818" points="117.25,211.9375,121.25,221.9375,125.25,211.9375,121.25,215.9375" style="stroke:#181818;stroke-width:1.0;"/><!--SRC=[Aov9B2hXiWe6KGe1HVd9gSN5rboPQGeQplbvAPabcVbvcWeb6Qbv2XgHgSMQN0eALex98545ppI5aABIL6kkr9pYL0KDltmqIRT4e3XG5cXA6bTnINu10000]--></g></svg>