<svg xmlns="http://www.w3.org/2000/svg" xmlns:xlink="http://www.w3.org/1999/xlink" contentStyleType="text/css" height="150px" preserveAspectRatio="none" style="width:141px;height:150px;background:#FFFFFF;" version="1.1" viewBox="0 0 141 150" width="141px" zoomAndPan="magnify"><defs/><g><!--class Car--><g id="elem_Car"><rect codeLine="1" fill="#F1F1F1" height="129.4844" id="Car" rx="2.5" ry="2.5" style="stroke:#181818;stroke-width:0.5;" width="120" x="7" y="7"/><ellipse cx="50.8" cy="23" fill="#ADD1B2" rx="11" ry="11" style="stroke:#181818;stroke-width:1.0;"/><path d="M53.1438,18.6719 C52.2063,18.2344 51.6125,18.0938 50.7375,18.0938 C48.1125,18.0938 46.1125,20.1719 46.1125,22.8906 L46.1125,24.0156 C46.1125,26.5938 48.2219,28.4844 51.1125,28.4844 C52.3313,28.4844 53.4875,28.1875 54.2375,27.6406 C54.8156,27.2344 55.1438,26.7813 55.1438,26.3906 C55.1438,25.9375 54.7531,25.5469 54.2844,25.5469 C54.0656,25.5469 53.8625,25.625 53.675,25.8125 C53.2219,26.2969 53.2219,26.2969 53.0344,26.3906 C52.6125,26.6563 51.925,26.7813 51.1594,26.7813 C49.1125,26.7813 47.8156,25.6875 47.8156,23.9844 L47.8156,22.8906 C47.8156,21.1094 49.0656,19.7969 50.8,19.7969 C51.3781,19.7969 51.9875,19.9531 52.4563,20.2031 C52.9406,20.4844 53.1125,20.7031 53.2063,21.1094 C53.2688,21.5156 53.3,21.6406 53.4406,21.7656 C53.5813,21.9063 53.8156,22.0156 54.0344,22.0156 C54.3,22.0156 54.5656,21.875 54.7375,21.6563 C54.8469,21.5 54.8781,21.3125 54.8781,20.8906 L54.8781,19.4688 C54.8781,19.0313 54.8625,18.9063 54.7688,18.75 C54.6125,18.4844 54.3313,18.3438 54.0344,18.3438 C53.7375,18.3438 53.5344,18.4375 53.3156,18.75 L53.1438,18.6719 Z " fill="#000000"/><text fill="#000000" font-family="sans-serif" font-size="14" lengthAdjust="spacing" textLength="24" x="71.2" y="27.8467">Car</text><line style="stroke:#181818;stroke-width:0.5;" x1="8" x2="126" y1="39" y2="39"/><text fill="#000000" font-family="sans-serif" font-size="14" lengthAdjust="spacing" textLength="61" x="13" y="55.9951">gear: int</text><line style="stroke:#181818;stroke-width:0.5;" x1="8" x2="126" y1="63.2969" y2="63.2969"/><ellipse cx="18" cy="76.9453" fill="#84BE84" rx="3" ry="3" style="stroke:#038048;stroke-width:1.0;"/><text fill="#000000" font-family="sans-serif" font-size="14" lengthAdjust="spacing" textLength="94" x="27" y="80.292">startEngine()</text><rect fill="#F24D5C" height="6" style="stroke:#C82930;stroke-width:1.0;" width="6" x="15" y="90.2422"/><text fill="#000000" font-family="sans-serif" font-size="14" lengthAdjust="spacing" textLength="92" x="27" y="96.5889">stopEngine()</text><polygon fill="#FFFF44" points="18,104.5391,22,108.5391,18,112.5391,14,108.5391" style="stroke:#B38D22;stroke-width:1.0;"/><text fill="#000000" font-family="sans-serif" font-size="14" lengthAdjust="spacing" textLength="86" x="27" y="112.8857">accelerate()</text><polygon fill="#4177AF" points="18,121.8359,14,127.8359,22,127.8359" style="stroke:#1963A0;stroke-width:1.0;"/><text fill="#000000" font-family="sans-serif" font-size="14" lengthAdjust="spacing" textLength="52" x="27" y="129.1826">brake()</text></g><!--SRC=[Iyv9B2vMS4uiKgZcKb3GBYv9B2fnpKlFp4lLq0GAw1QNv1SWyPKJavDJSrAB4aiW_BgaeiHi23CzDR78IY4phuIh5W00]--></g></svg>