<svg contentScriptType="application/ecmascript" contentStyleType="text/css" height="233px" preserveAspectRatio="none" style="width:490px;height:233px;" version="1.1" viewBox="0 0 490 233" width="490px" xmlns="http://www.w3.org/2000/svg" xmlns:xlink="http://www.w3.org/1999/xlink" zoomAndPan="magnify"><defs><filter height="300%" id="f1cd3h6txhiwj8" width="300%" x="-1" y="-1"><feGaussianBlur result="blurOut" stdDeviation="2.0"/><feColorMatrix in="blurOut" result="blurOut2" type="matrix" values="0 0 0 0 0 0 0 0 0 0 0 0 0 0 0 0 0 0 .4 0"/><feOffset dx="4.0" dy="4.0" in="blurOut2" result="blurOut3"/><feBlend in="SourceGraphic" in2="blurOut3" mode="normal"/></filter></defs><g><!--MD5=[2e2fc17516767c5c5517cc20dc36cd6f]
class Abstracta--><rect codeLine="1" fill="#FEFECE" filter="url(#f1cd3h6txhiwj8)" height="99.2188" id="Abstracta" style="stroke: #A80036; stroke-width: 1.5;" width="128" x="18.5" y="7"/><ellipse cx="50.6" cy="23" fill="#A9DCDF" rx="11" ry="11" style="stroke: #A80036; stroke-width: 1.0;"/><path d="M52.6781,24.8125 L53.0688,25.7969 L52.6781,25.7969 C52.225,25.7969 52.1156,25.8125 51.9594,25.9219 C51.7094,26.0781 51.5531,26.3594 51.5531,26.6563 C51.5531,26.9219 51.6938,27.1719 51.9125,27.3281 C52.0531,27.4531 52.2563,27.5 52.6781,27.5 L55.0375,27.5 C55.3969,27.5 55.6156,27.4688 55.7563,27.375 C56.0063,27.2344 56.1625,26.9375 56.1625,26.6563 C56.1625,26.375 56.0219,26.125 55.8031,25.9688 C55.6313,25.8281 55.475,25.7969 55.0063,25.7969 L51.6156,17.5938 L47.9438,17.5938 C47.4906,17.5938 47.3656,17.6094 47.2094,17.7031 C46.9594,17.875 46.8031,18.1563 46.8031,18.4375 C46.8031,18.7188 46.9438,18.9688 47.1625,19.1406 C47.3344,19.25 47.5063,19.2813 47.9438,19.2813 L49.0219,19.2813 L46.3813,25.7969 C45.9594,25.7969 45.8031,25.8125 45.6469,25.9219 C45.3969,26.0781 45.2406,26.3594 45.2406,26.6563 C45.2406,27.2188 45.6156,27.5 46.3656,27.5 L48.6313,27.5 C48.9906,27.5 49.2094,27.4688 49.3344,27.375 C49.6,27.2344 49.7406,26.9375 49.7406,26.6563 C49.7406,26.375 49.6156,26.125 49.3969,25.9531 C49.225,25.8281 49.0844,25.7969 48.6313,25.7969 L48.2406,25.7969 L48.6313,24.8125 L52.6781,24.8125 Z M51.975,23.1094 L49.3031,23.1094 L50.6469,19.8438 L51.975,23.1094 Z "/><text fill="#000000" font-family="sans-serif" font-size="12" font-style="italic" lengthAdjust="spacingAndGlyphs" textLength="58" x="68.4" y="27.1543">Abstracta</text><line style="stroke: #A80036; stroke-width: 1.5;" x1="19.5" x2="145.5" y1="39" y2="39"/><rect fill="none" height="6" style="stroke: #C82930; stroke-width: 1.0;" width="6" x="26.5" y="47"/><text fill="#000000" font-family="sans-serif" font-size="11" lengthAdjust="spacingAndGlyphs" textLength="42" x="38.5" y="53.2104">privado</text><polygon fill="none" points="29.5,57.8047,33.5,61.8047,29.5,65.8047,25.5,61.8047" style="stroke: #B38D22; stroke-width: 1.0;"/><text fill="#000000" font-family="sans-serif" font-size="11" lengthAdjust="spacingAndGlyphs" textLength="55" x="38.5" y="66.0151">protected</text><line style="stroke: #A80036; stroke-width: 1.5;" x1="19.5" x2="145.5" y1="72.6094" y2="72.6094"/><polygon fill="#4177AF" points="29.5,79.6094,25.5,85.6094,33.5,85.6094" style="stroke: #1963A0; stroke-width: 1.0;"/><text fill="#000000" font-family="sans-serif" font-size="11" lengthAdjust="spacingAndGlyphs" textLength="102" x="38.5" y="86.8198">package_private()</text><ellipse cx="29.5" cy="96.4141" fill="#84BE84" rx="3" ry="3" style="stroke: #038048; stroke-width: 1.0;"/><text fill="#000000" font-family="sans-serif" font-size="11" lengthAdjust="spacingAndGlyphs" textLength="41" x="38.5" y="99.6245">public()</text><!--MD5=[a2e874bc19895dfc9807100069c4c95c]
class Interfaz--><rect codeLine="8" fill="#FEFECE" filter="url(#f1cd3h6txhiwj8)" height="60.8047" id="Interfaz" style="stroke: #A80036; stroke-width: 1.5;" width="78" x="274.5" y="26"/><ellipse cx="289.5" cy="42" fill="#B4A7E5" rx="11" ry="11" style="stroke: #A80036; stroke-width: 1.0;"/><path d="M290.4531,38.7813 L292.1719,38.7813 C292.5625,38.7813 292.75,38.75 292.875,38.6719 C293.1406,38.5156 293.2813,38.2344 293.2813,37.9375 C293.2813,37.6719 293.1719,37.4063 292.9375,37.2344 C292.7656,37.125 292.625,37.0938 292.1719,37.0938 L287.0313,37.0938 C286.5938,37.0938 286.4688,37.1094 286.3125,37.2031 C286.0625,37.3594 285.9063,37.6563 285.9063,37.9375 C285.9063,38.2188 286.0469,38.4688 286.2656,38.6406 C286.4219,38.75 286.6094,38.7813 287.0313,38.7813 L288.75,38.7813 L288.75,45.2969 L287.0313,45.2969 C286.5938,45.2969 286.4688,45.3125 286.3125,45.4219 C286.0625,45.5781 285.9063,45.8594 285.9063,46.1563 C285.9063,46.4063 286.0469,46.6719 286.2656,46.8281 C286.4219,46.9531 286.625,47 287.0313,47 L292.1719,47 C292.9219,47 293.2813,46.7188 293.2813,46.1563 C293.2813,45.875 293.1719,45.625 292.9375,45.4531 C292.7656,45.3281 292.625,45.2969 292.1719,45.2969 L290.4531,45.2969 L290.4531,38.7813 Z "/><text fill="#000000" font-family="sans-serif" font-size="12" font-style="italic" lengthAdjust="spacingAndGlyphs" textLength="46" x="303.5" y="46.1543">Interfaz</text><line style="stroke: #A80036; stroke-width: 1.5;" x1="275.5" x2="351.5" y1="58" y2="58"/><line style="stroke: #A80036; stroke-width: 1.5;" x1="275.5" x2="351.5" y1="66" y2="66"/><text fill="#000000" font-family="sans-serif" font-size="11" lengthAdjust="spacingAndGlyphs" textLength="52" x="280.5" y="80.2104">metodo()</text><!--MD5=[15b68e006199004da79ea2a4d117d8e9]
class TimeUnit--><rect codeLine="12" fill="#FEFECE" filter="url(#f1cd3h6txhiwj8)" height="86.4141" id="TimeUnit" style="stroke: #A80036; stroke-width: 1.5;" width="84" x="387.5" y="13.5"/><ellipse cx="402.5" cy="29.5" fill="#EB937F" rx="11" ry="11" style="stroke: #A80036; stroke-width: 1.0;"/><path d="M401.2969,30.375 L402.75,30.375 L402.75,30.4844 C402.75,30.8906 402.7813,31.0469 402.8594,31.2031 C403.0156,31.4531 403.2969,31.6094 403.5938,31.6094 C403.8438,31.6094 404.1094,31.4688 404.2656,31.25 C404.3906,31.0938 404.4219,30.9375 404.4219,30.4844 L404.4219,28.5625 C404.4219,28.4063 404.4219,28.3594 404.4063,28.2031 C404.3438,27.7344 404.0313,27.4219 403.5781,27.4219 C403.3281,27.4219 403.0625,27.5625 402.8906,27.7813 C402.7813,27.9531 402.75,28.1094 402.75,28.5625 L402.75,28.6875 L401.2969,28.6875 L401.2969,26.2813 L405.2813,26.2813 L405.2813,27.1406 C405.2813,27.5469 405.3125,27.7188 405.3906,27.875 C405.5625,28.125 405.8438,28.2813 406.125,28.2813 C406.3906,28.2813 406.6563,28.1406 406.8281,27.9219 C406.9375,27.75 406.9688,27.6094 406.9688,27.1406 L406.9688,24.5938 L399.3438,24.5938 C398.9063,24.5938 398.7813,24.6094 398.625,24.7031 C398.375,24.8594 398.2188,25.1563 398.2188,25.4375 C398.2188,25.7188 398.3594,25.9688 398.5781,26.1406 C398.7344,26.25 398.9219,26.2813 399.3438,26.2813 L399.5938,26.2813 L399.5938,32.7969 L399.3438,32.7969 C398.9375,32.7969 398.7813,32.8125 398.625,32.9219 C398.375,33.0938 398.2188,33.3594 398.2188,33.6563 C398.2188,33.9219 398.3594,34.1719 398.5781,34.3281 C398.7188,34.4531 398.9531,34.5 399.3438,34.5 L407.3438,34.5 L407.3438,31.9219 C407.3438,31.4844 407.3125,31.3438 407.2344,31.1875 C407.0625,30.9375 406.7813,30.7813 406.5,30.7813 C406.2344,30.7813 405.9688,30.8906 405.7969,31.1406 C405.6875,31.2969 405.6563,31.4375 405.6563,31.9219 L405.6563,32.7969 L401.2969,32.7969 L401.2969,30.375 Z "/><text fill="#000000" font-family="sans-serif" font-size="12" lengthAdjust="spacingAndGlyphs" textLength="52" x="416.5" y="33.6543">TimeUnit</text><line style="stroke: #A80036; stroke-width: 1.5;" x1="388.5" x2="470.5" y1="45.5" y2="45.5"/><text fill="#000000" font-family="sans-serif" font-size="11" lengthAdjust="spacingAndGlyphs" textLength="28" x="393.5" y="59.7104">DIAS</text><text fill="#000000" font-family="sans-serif" font-size="11" lengthAdjust="spacingAndGlyphs" textLength="40" x="393.5" y="72.5151">HORAS</text><text fill="#000000" font-family="sans-serif" font-size="11" lengthAdjust="spacingAndGlyphs" textLength="52" x="393.5" y="85.3198">MINUTOS</text><line style="stroke: #A80036; stroke-width: 1.5;" x1="388.5" x2="470.5" y1="91.9141" y2="91.9141"/><!--MD5=[0f41aec53022ad6042a2eb8f0445fa53]
class Clase2--><rect codeLine="18" fill="#FF0000" filter="url(#f1cd3h6txhiwj8)" height="48" id="Clase2" style="stroke: #A80036; stroke-width: 1.5;" width="73" x="7" y="166"/><ellipse cx="22" cy="182" fill="#ADD1B2" rx="11" ry="11" style="stroke: #A80036; stroke-width: 1.0;"/><path d="M24.3438,177.6719 C23.4063,177.2344 22.8125,177.0938 21.9375,177.0938 C19.3125,177.0938 17.3125,179.1719 17.3125,181.8906 L17.3125,183.0156 C17.3125,185.5938 19.4219,187.4844 22.3125,187.4844 C23.5313,187.4844 24.6875,187.1875 25.4375,186.6406 C26.0156,186.2344 26.3438,185.7813 26.3438,185.3906 C26.3438,184.9375 25.9531,184.5469 25.4844,184.5469 C25.2656,184.5469 25.0625,184.625 24.875,184.8125 C24.4219,185.2969 24.4219,185.2969 24.2344,185.3906 C23.8125,185.6563 23.125,185.7813 22.3594,185.7813 C20.3125,185.7813 19.0156,184.6875 19.0156,182.9844 L19.0156,181.8906 C19.0156,180.1094 20.2656,178.7969 22,178.7969 C22.5781,178.7969 23.1875,178.9531 23.6563,179.2031 C24.1406,179.4844 24.3125,179.7031 24.4063,180.1094 C24.4688,180.5156 24.5,180.6406 24.6406,180.7656 C24.7813,180.9063 25.0156,181.0156 25.2344,181.0156 C25.5,181.0156 25.7656,180.875 25.9375,180.6563 C26.0469,180.5 26.0781,180.3125 26.0781,179.8906 L26.0781,178.4688 C26.0781,178.0313 26.0625,177.9063 25.9688,177.75 C25.8125,177.4844 25.5313,177.3438 25.2344,177.3438 C24.9375,177.3438 24.7344,177.4375 24.5156,177.75 L24.3438,177.6719 Z "/><text fill="#000000" font-family="sans-serif" font-size="12" lengthAdjust="spacingAndGlyphs" textLength="41" x="36" y="186.1543">Clase2</text><line style="stroke: #A80036; stroke-width: 1.5;" x1="8" x2="79" y1="198" y2="198"/><line style="stroke: #A80036; stroke-width: 1.5;" x1="8" x2="79" y1="206" y2="206"/><!--MD5=[2c9ecc0a7368ed76df993a8b99fd7ad3]
class Clase3--><rect fill="#FEFECE" filter="url(#f1cd3h6txhiwj8)" height="48" id="Clase3" style="stroke: #A80036; stroke-width: 1.5;" width="73" x="115" y="166"/><ellipse cx="130" cy="182" fill="#ADD1B2" rx="11" ry="11" style="stroke: #A80036; stroke-width: 1.0;"/><path d="M132.3438,177.6719 C131.4063,177.2344 130.8125,177.0938 129.9375,177.0938 C127.3125,177.0938 125.3125,179.1719 125.3125,181.8906 L125.3125,183.0156 C125.3125,185.5938 127.4219,187.4844 130.3125,187.4844 C131.5313,187.4844 132.6875,187.1875 133.4375,186.6406 C134.0156,186.2344 134.3438,185.7813 134.3438,185.3906 C134.3438,184.9375 133.9531,184.5469 133.4844,184.5469 C133.2656,184.5469 133.0625,184.625 132.875,184.8125 C132.4219,185.2969 132.4219,185.2969 132.2344,185.3906 C131.8125,185.6563 131.125,185.7813 130.3594,185.7813 C128.3125,185.7813 127.0156,184.6875 127.0156,182.9844 L127.0156,181.8906 C127.0156,180.1094 128.2656,178.7969 130,178.7969 C130.5781,178.7969 131.1875,178.9531 131.6563,179.2031 C132.1406,179.4844 132.3125,179.7031 132.4063,180.1094 C132.4688,180.5156 132.5,180.6406 132.6406,180.7656 C132.7813,180.9063 133.0156,181.0156 133.2344,181.0156 C133.5,181.0156 133.7656,180.875 133.9375,180.6563 C134.0469,180.5 134.0781,180.3125 134.0781,179.8906 L134.0781,178.4688 C134.0781,178.0313 134.0625,177.9063 133.9688,177.75 C133.8125,177.4844 133.5313,177.3438 133.2344,177.3438 C132.9375,177.3438 132.7344,177.4375 132.5156,177.75 L132.3438,177.6719 Z "/><text fill="#000000" font-family="sans-serif" font-size="12" lengthAdjust="spacingAndGlyphs" textLength="41" x="144" y="186.1543">Clase3</text><line style="stroke: #A80036; stroke-width: 1.5;" x1="116" x2="187" y1="198" y2="198"/><line style="stroke: #A80036; stroke-width: 1.5;" x1="116" x2="187" y1="206" y2="206"/><!--MD5=[3d03710c9870b3fbccf94dcefe84f8f7]
class Clase4--><rect fill="#FEFECE" filter="url(#f1cd3h6txhiwj8)" height="48" id="Clase4" style="stroke: #A80036; stroke-width: 1.5;" width="73" x="223" y="166"/><ellipse cx="238" cy="182" fill="#ADD1B2" rx="11" ry="11" style="stroke: #A80036; stroke-width: 1.0;"/><path d="M240.3438,177.6719 C239.4063,177.2344 238.8125,177.0938 237.9375,177.0938 C235.3125,177.0938 233.3125,179.1719 233.3125,181.8906 L233.3125,183.0156 C233.3125,185.5938 235.4219,187.4844 238.3125,187.4844 C239.5313,187.4844 240.6875,187.1875 241.4375,186.6406 C242.0156,186.2344 242.3438,185.7813 242.3438,185.3906 C242.3438,184.9375 241.9531,184.5469 241.4844,184.5469 C241.2656,184.5469 241.0625,184.625 240.875,184.8125 C240.4219,185.2969 240.4219,185.2969 240.2344,185.3906 C239.8125,185.6563 239.125,185.7813 238.3594,185.7813 C236.3125,185.7813 235.0156,184.6875 235.0156,182.9844 L235.0156,181.8906 C235.0156,180.1094 236.2656,178.7969 238,178.7969 C238.5781,178.7969 239.1875,178.9531 239.6563,179.2031 C240.1406,179.4844 240.3125,179.7031 240.4063,180.1094 C240.4688,180.5156 240.5,180.6406 240.6406,180.7656 C240.7813,180.9063 241.0156,181.0156 241.2344,181.0156 C241.5,181.0156 241.7656,180.875 241.9375,180.6563 C242.0469,180.5 242.0781,180.3125 242.0781,179.8906 L242.0781,178.4688 C242.0781,178.0313 242.0625,177.9063 241.9688,177.75 C241.8125,177.4844 241.5313,177.3438 241.2344,177.3438 C240.9375,177.3438 240.7344,177.4375 240.5156,177.75 L240.3438,177.6719 Z "/><text fill="#000000" font-family="sans-serif" font-size="12" lengthAdjust="spacingAndGlyphs" textLength="41" x="252" y="186.1543">Clase4</text><line style="stroke: #A80036; stroke-width: 1.5;" x1="224" x2="295" y1="198" y2="198"/><line style="stroke: #A80036; stroke-width: 1.5;" x1="224" x2="295" y1="206" y2="206"/><!--MD5=[1f8c144c1c43692a2dc6bfa14b4c4c56]
class Clase5--><rect fill="#FEFECE" filter="url(#f1cd3h6txhiwj8)" height="48" id="Clase5" style="stroke: #A80036; stroke-width: 1.5;" width="73" x="331" y="166"/><ellipse cx="346" cy="182" fill="#ADD1B2" rx="11" ry="11" style="stroke: #A80036; stroke-width: 1.0;"/><path d="M348.3438,177.6719 C347.4063,177.2344 346.8125,177.0938 345.9375,177.0938 C343.3125,177.0938 341.3125,179.1719 341.3125,181.8906 L341.3125,183.0156 C341.3125,185.5938 343.4219,187.4844 346.3125,187.4844 C347.5313,187.4844 348.6875,187.1875 349.4375,186.6406 C350.0156,186.2344 350.3438,185.7813 350.3438,185.3906 C350.3438,184.9375 349.9531,184.5469 349.4844,184.5469 C349.2656,184.5469 349.0625,184.625 348.875,184.8125 C348.4219,185.2969 348.4219,185.2969 348.2344,185.3906 C347.8125,185.6563 347.125,185.7813 346.3594,185.7813 C344.3125,185.7813 343.0156,184.6875 343.0156,182.9844 L343.0156,181.8906 C343.0156,180.1094 344.2656,178.7969 346,178.7969 C346.5781,178.7969 347.1875,178.9531 347.6563,179.2031 C348.1406,179.4844 348.3125,179.7031 348.4063,180.1094 C348.4688,180.5156 348.5,180.6406 348.6406,180.7656 C348.7813,180.9063 349.0156,181.0156 349.2344,181.0156 C349.5,181.0156 349.7656,180.875 349.9375,180.6563 C350.0469,180.5 350.0781,180.3125 350.0781,179.8906 L350.0781,178.4688 C350.0781,178.0313 350.0625,177.9063 349.9688,177.75 C349.8125,177.4844 349.5313,177.3438 349.2344,177.3438 C348.9375,177.3438 348.7344,177.4375 348.5156,177.75 L348.3438,177.6719 Z "/><text fill="#000000" font-family="sans-serif" font-size="12" lengthAdjust="spacingAndGlyphs" textLength="41" x="360" y="186.1543">Clase5</text><line style="stroke: #A80036; stroke-width: 1.5;" x1="332" x2="403" y1="198" y2="198"/><line style="stroke: #A80036; stroke-width: 1.5;" x1="332" x2="403" y1="206" y2="206"/><!--MD5=[eccda684992c103dbf84e9f432c4ca72]
reverse link Abstracta to Clase2--><path codeLine="20" d="M62.2643,125.7307 C57.9569,140.2544 53.6974,154.6165 50.3281,165.9769 " fill="none" id="Abstracta-backto-Clase2" style="stroke: #A80036; stroke-width: 1.0;"/><polygon fill="none" points="55.6908,123.2762,68.0886,106.092,69.1129,127.257,55.6908,123.2762" style="stroke: #A80036; stroke-width: 1.0;"/><!--MD5=[dfb0ac21e6bbdf24d91204ae626415d6]
reverse link Abstracta to Clase3--><path codeLine="21" d="M117.522,124.2448 C125.407,139.2717 133.255,154.2292 139.419,165.9769 " fill="none" id="Abstracta-backto-Clase3" style="stroke: #A80036; stroke-width: 1.0;"/><polygon fill="none" points="111.091,127.0547,107.997,106.092,123.488,120.5497,111.091,127.0547" style="stroke: #A80036; stroke-width: 1.0;"/><!--MD5=[aae2bd873ecb88765bdc834e97bc18ee]
reverse link Interfaz to Clase4--><path codeLine="23" d="M293.741,105.618 C285.324,126.1127 275.895,149.0759 269.065,165.707 " fill="none" id="Interfaz-backto-Clase4" style="stroke: #A80036; stroke-width: 1.0; stroke-dasharray: 7.0,7.0;"/><polygon fill="none" points="287.309,102.853,301.381,87.011,300.259,108.171,287.309,102.853" style="stroke: #A80036; stroke-width: 1.0;"/><!--MD5=[606ca79786e7d7bb66d0edba96c4b404]
reverse link Interfaz to Clase5--><path codeLine="24" d="M333.259,105.618 C341.676,126.1127 351.105,149.0759 357.935,165.707 " fill="none" id="Interfaz-backto-Clase5" style="stroke: #A80036; stroke-width: 1.0; stroke-dasharray: 7.0,7.0;"/><polygon fill="none" points="326.741,108.171,325.619,87.011,339.691,102.853,326.741,108.171" style="stroke: #A80036; stroke-width: 1.0;"/><!--MD5=[d58ce3bf7dd0d7ade21e62ef53133d83]
@startuml
abstract Abstracta{
      -privado
      #protected
      ~package_private()
      +public()
}
 
interface Interfaz {
      metodo()
}
 
enum TimeUnit {
      DIAS
      HORAS
      MINUTOS
}
 
class Clase2 #red
 
Abstracta <|- - Clase2
Abstracta <|- - Clase3
 
Interfaz <|.. Clase4
Interfaz <|.. Clase5
@enduml

PlantUML version 1.2020.18beta4(Unknown compile time)
(GPL source distribution)
Java Runtime: Java(TM) SE Runtime Environment
JVM: Java HotSpot(TM) 64-Bit Server VM
Default Encoding: UTF-8
Language: en
Country: US
--></g></svg>