<svg contentScriptType="application/ecmascript" contentStyleType="text/css" height="237px" preserveAspectRatio="none" style="width:474px;height:237px;" version="1.1" viewBox="0 0 474 237" width="474px" xmlns="http://www.w3.org/2000/svg" xmlns:xlink="http://www.w3.org/1999/xlink" zoomAndPan="magnify"><defs><filter height="300%" id="f6gfsp5w3kkdd" width="300%" x="-1" y="-1"><feGaussianBlur result="blurOut" stdDeviation="2.0"/><feColorMatrix in="blurOut" result="blurOut2" type="matrix" values="0 0 0 0 0 0 0 0 0 0 0 0 0 0 0 0 0 0 .4 0"/><feOffset dx="4.0" dy="4.0" in="blurOut2" result="blurOut3"/><feBlend in="SourceGraphic" in2="blurOut3" mode="normal"/></filter></defs><g><!--MD5=[4e35f906c2a4d4856153a549eaaabe8e]
class Clase1--><rect codeLine="1" fill="#FEFECE" filter="url(#f6gfsp5w3kkdd)" height="60.8047" id="Clase1" style="stroke: #A80036; stroke-width: 1.5;" width="72" x="100" y="7"/><ellipse cx="115" cy="23" fill="#ADD1B2" rx="11" ry="11" style="stroke: #A80036; stroke-width: 1.0;"/><path d="M117.3438,18.6719 C116.4063,18.2344 115.8125,18.0938 114.9375,18.0938 C112.3125,18.0938 110.3125,20.1719 110.3125,22.8906 L110.3125,24.0156 C110.3125,26.5938 112.4219,28.4844 115.3125,28.4844 C116.5313,28.4844 117.6875,28.1875 118.4375,27.6406 C119.0156,27.2344 119.3438,26.7813 119.3438,26.3906 C119.3438,25.9375 118.9531,25.5469 118.4844,25.5469 C118.2656,25.5469 118.0625,25.625 117.875,25.8125 C117.4219,26.2969 117.4219,26.2969 117.2344,26.3906 C116.8125,26.6563 116.125,26.7813 115.3594,26.7813 C113.3125,26.7813 112.0156,25.6875 112.0156,23.9844 L112.0156,22.8906 C112.0156,21.1094 113.2656,19.7969 115,19.7969 C115.5781,19.7969 116.1875,19.9531 116.6563,20.2031 C117.1406,20.4844 117.3125,20.7031 117.4063,21.1094 C117.4688,21.5156 117.5,21.6406 117.6406,21.7656 C117.7813,21.9063 118.0156,22.0156 118.2344,22.0156 C118.5,22.0156 118.7656,21.875 118.9375,21.6563 C119.0469,21.5 119.0781,21.3125 119.0781,20.8906 L119.0781,19.4688 C119.0781,19.0313 119.0625,18.9063 118.9688,18.75 C118.8125,18.4844 118.5313,18.3438 118.2344,18.3438 C117.9375,18.3438 117.7344,18.4375 117.5156,18.75 L117.3438,18.6719 Z "/><text fill="#000000" font-family="sans-serif" font-size="12" lengthAdjust="spacingAndGlyphs" textLength="40" x="129" y="27.1543">Clase1</text><line style="stroke: #A80036; stroke-width: 1.5;" x1="101" x2="171" y1="39" y2="39"/><line style="stroke: #A80036; stroke-width: 1.5;" x1="101" x2="171" y1="47" y2="47"/><text fill="#000000" font-family="sans-serif" font-size="11" lengthAdjust="spacingAndGlyphs" textLength="52" x="106" y="61.2104">toString()</text><!--MD5=[0f41aec53022ad6042a2eb8f0445fa53]
class Clase2--><rect codeLine="5" fill="#FEFECE" filter="url(#f6gfsp5w3kkdd)" height="73.6094" id="Clase2" style="stroke: #A80036; stroke-width: 1.5;" width="124" x="7" y="145"/><ellipse cx="44.95" cy="161" fill="#ADD1B2" rx="11" ry="11" style="stroke: #A80036; stroke-width: 1.0;"/><path d="M47.2938,156.6719 C46.3563,156.2344 45.7625,156.0938 44.8875,156.0938 C42.2625,156.0938 40.2625,158.1719 40.2625,160.8906 L40.2625,162.0156 C40.2625,164.5938 42.3719,166.4844 45.2625,166.4844 C46.4813,166.4844 47.6375,166.1875 48.3875,165.6406 C48.9656,165.2344 49.2938,164.7813 49.2938,164.3906 C49.2938,163.9375 48.9031,163.5469 48.4344,163.5469 C48.2156,163.5469 48.0125,163.625 47.825,163.8125 C47.3719,164.2969 47.3719,164.2969 47.1844,164.3906 C46.7625,164.6563 46.075,164.7813 45.3094,164.7813 C43.2625,164.7813 41.9656,163.6875 41.9656,161.9844 L41.9656,160.8906 C41.9656,159.1094 43.2156,157.7969 44.95,157.7969 C45.5281,157.7969 46.1375,157.9531 46.6063,158.2031 C47.0906,158.4844 47.2625,158.7031 47.3563,159.1094 C47.4188,159.5156 47.45,159.6406 47.5906,159.7656 C47.7313,159.9063 47.9656,160.0156 48.1844,160.0156 C48.45,160.0156 48.7156,159.875 48.8875,159.6563 C48.9969,159.5 49.0281,159.3125 49.0281,158.8906 L49.0281,157.4688 C49.0281,157.0313 49.0125,156.9063 48.9188,156.75 C48.7625,156.4844 48.4813,156.3438 48.1844,156.3438 C47.8875,156.3438 47.6844,156.4375 47.4656,156.75 L47.2938,156.6719 Z "/><text fill="#000000" font-family="sans-serif" font-size="12" lengthAdjust="spacingAndGlyphs" textLength="41" x="64.05" y="165.1543">Clase2</text><line style="stroke: #A80036; stroke-width: 1.5;" x1="8" x2="130" y1="177" y2="177"/><text fill="#000000" font-family="sans-serif" font-size="11" lengthAdjust="spacingAndGlyphs" textLength="107" x="13" y="191.2104">String[] elementos</text><line style="stroke: #A80036; stroke-width: 1.5;" x1="8" x2="130" y1="197.8047" y2="197.8047"/><text fill="#000000" font-family="sans-serif" font-size="11" lengthAdjust="spacingAndGlyphs" textLength="112" x="13" y="212.0151">mostrarElementos()</text><!--MD5=[2c9ecc0a7368ed76df993a8b99fd7ad3]
class Clase3--><rect fill="#FEFECE" filter="url(#f6gfsp5w3kkdd)" height="48" id="Clase3" style="stroke: #A80036; stroke-width: 1.5;" width="73" x="166.5" y="158"/><ellipse cx="181.5" cy="174" fill="#ADD1B2" rx="11" ry="11" style="stroke: #A80036; stroke-width: 1.0;"/><path d="M183.8438,169.6719 C182.9063,169.2344 182.3125,169.0938 181.4375,169.0938 C178.8125,169.0938 176.8125,171.1719 176.8125,173.8906 L176.8125,175.0156 C176.8125,177.5938 178.9219,179.4844 181.8125,179.4844 C183.0313,179.4844 184.1875,179.1875 184.9375,178.6406 C185.5156,178.2344 185.8438,177.7813 185.8438,177.3906 C185.8438,176.9375 185.4531,176.5469 184.9844,176.5469 C184.7656,176.5469 184.5625,176.625 184.375,176.8125 C183.9219,177.2969 183.9219,177.2969 183.7344,177.3906 C183.3125,177.6563 182.625,177.7813 181.8594,177.7813 C179.8125,177.7813 178.5156,176.6875 178.5156,174.9844 L178.5156,173.8906 C178.5156,172.1094 179.7656,170.7969 181.5,170.7969 C182.0781,170.7969 182.6875,170.9531 183.1563,171.2031 C183.6406,171.4844 183.8125,171.7031 183.9063,172.1094 C183.9688,172.5156 184,172.6406 184.1406,172.7656 C184.2813,172.9063 184.5156,173.0156 184.7344,173.0156 C185,173.0156 185.2656,172.875 185.4375,172.6563 C185.5469,172.5 185.5781,172.3125 185.5781,171.8906 L185.5781,170.4688 C185.5781,170.0313 185.5625,169.9063 185.4688,169.75 C185.3125,169.4844 185.0313,169.3438 184.7344,169.3438 C184.4375,169.3438 184.2344,169.4375 184.0156,169.75 L183.8438,169.6719 Z "/><text fill="#000000" font-family="sans-serif" font-size="12" lengthAdjust="spacingAndGlyphs" textLength="41" x="195.5" y="178.1543">Clase3</text><line style="stroke: #A80036; stroke-width: 1.5;" x1="167.5" x2="238.5" y1="190" y2="190"/><line style="stroke: #A80036; stroke-width: 1.5;" x1="167.5" x2="238.5" y1="198" y2="198"/><!--MD5=[3d03710c9870b3fbccf94dcefe84f8f7]
class Clase4--><rect fill="#FEFECE" filter="url(#f6gfsp5w3kkdd)" height="48" id="Clase4" style="stroke: #A80036; stroke-width: 1.5;" width="73" x="274.5" y="13.5"/><ellipse cx="289.5" cy="29.5" fill="#ADD1B2" rx="11" ry="11" style="stroke: #A80036; stroke-width: 1.0;"/><path d="M291.8438,25.1719 C290.9063,24.7344 290.3125,24.5938 289.4375,24.5938 C286.8125,24.5938 284.8125,26.6719 284.8125,29.3906 L284.8125,30.5156 C284.8125,33.0938 286.9219,34.9844 289.8125,34.9844 C291.0313,34.9844 292.1875,34.6875 292.9375,34.1406 C293.5156,33.7344 293.8438,33.2813 293.8438,32.8906 C293.8438,32.4375 293.4531,32.0469 292.9844,32.0469 C292.7656,32.0469 292.5625,32.125 292.375,32.3125 C291.9219,32.7969 291.9219,32.7969 291.7344,32.8906 C291.3125,33.1563 290.625,33.2813 289.8594,33.2813 C287.8125,33.2813 286.5156,32.1875 286.5156,30.4844 L286.5156,29.3906 C286.5156,27.6094 287.7656,26.2969 289.5,26.2969 C290.0781,26.2969 290.6875,26.4531 291.1563,26.7031 C291.6406,26.9844 291.8125,27.2031 291.9063,27.6094 C291.9688,28.0156 292,28.1406 292.1406,28.2656 C292.2813,28.4063 292.5156,28.5156 292.7344,28.5156 C293,28.5156 293.2656,28.375 293.4375,28.1563 C293.5469,28 293.5781,27.8125 293.5781,27.3906 L293.5781,25.9688 C293.5781,25.5313 293.5625,25.4063 293.4688,25.25 C293.3125,24.9844 293.0313,24.8438 292.7344,24.8438 C292.4375,24.8438 292.2344,24.9375 292.0156,25.25 L291.8438,25.1719 Z "/><text fill="#000000" font-family="sans-serif" font-size="12" lengthAdjust="spacingAndGlyphs" textLength="41" x="303.5" y="33.6543">Clase4</text><line style="stroke: #A80036; stroke-width: 1.5;" x1="275.5" x2="346.5" y1="45.5" y2="45.5"/><line style="stroke: #A80036; stroke-width: 1.5;" x1="275.5" x2="346.5" y1="53.5" y2="53.5"/><!--MD5=[1f8c144c1c43692a2dc6bfa14b4c4c56]
class Clase5--><rect fill="#FEFECE" filter="url(#f6gfsp5w3kkdd)" height="48" id="Clase5" style="stroke: #A80036; stroke-width: 1.5;" width="73" x="274.5" y="158"/><ellipse cx="289.5" cy="174" fill="#ADD1B2" rx="11" ry="11" style="stroke: #A80036; stroke-width: 1.0;"/><path d="M291.8438,169.6719 C290.9063,169.2344 290.3125,169.0938 289.4375,169.0938 C286.8125,169.0938 284.8125,171.1719 284.8125,173.8906 L284.8125,175.0156 C284.8125,177.5938 286.9219,179.4844 289.8125,179.4844 C291.0313,179.4844 292.1875,179.1875 292.9375,178.6406 C293.5156,178.2344 293.8438,177.7813 293.8438,177.3906 C293.8438,176.9375 293.4531,176.5469 292.9844,176.5469 C292.7656,176.5469 292.5625,176.625 292.375,176.8125 C291.9219,177.2969 291.9219,177.2969 291.7344,177.3906 C291.3125,177.6563 290.625,177.7813 289.8594,177.7813 C287.8125,177.7813 286.5156,176.6875 286.5156,174.9844 L286.5156,173.8906 C286.5156,172.1094 287.7656,170.7969 289.5,170.7969 C290.0781,170.7969 290.6875,170.9531 291.1563,171.2031 C291.6406,171.4844 291.8125,171.7031 291.9063,172.1094 C291.9688,172.5156 292,172.6406 292.1406,172.7656 C292.2813,172.9063 292.5156,173.0156 292.7344,173.0156 C293,173.0156 293.2656,172.875 293.4375,172.6563 C293.5469,172.5 293.5781,172.3125 293.5781,171.8906 L293.5781,170.4688 C293.5781,170.0313 293.5625,169.9063 293.4688,169.75 C293.3125,169.4844 293.0313,169.3438 292.7344,169.3438 C292.4375,169.3438 292.2344,169.4375 292.0156,169.75 L291.8438,169.6719 Z "/><text fill="#000000" font-family="sans-serif" font-size="12" lengthAdjust="spacingAndGlyphs" textLength="41" x="303.5" y="178.1543">Clase5</text><line style="stroke: #A80036; stroke-width: 1.5;" x1="275.5" x2="346.5" y1="190" y2="190"/><line style="stroke: #A80036; stroke-width: 1.5;" x1="275.5" x2="346.5" y1="198" y2="198"/><!--MD5=[71afceb414046089c2fa0e9dda318570]
class Clase6--><rect fill="#FEFECE" filter="url(#f6gfsp5w3kkdd)" height="48" id="Clase6" style="stroke: #A80036; stroke-width: 1.5;" width="73" x="382.5" y="13.5"/><ellipse cx="397.5" cy="29.5" fill="#ADD1B2" rx="11" ry="11" style="stroke: #A80036; stroke-width: 1.0;"/><path d="M399.8438,25.1719 C398.9063,24.7344 398.3125,24.5938 397.4375,24.5938 C394.8125,24.5938 392.8125,26.6719 392.8125,29.3906 L392.8125,30.5156 C392.8125,33.0938 394.9219,34.9844 397.8125,34.9844 C399.0313,34.9844 400.1875,34.6875 400.9375,34.1406 C401.5156,33.7344 401.8438,33.2813 401.8438,32.8906 C401.8438,32.4375 401.4531,32.0469 400.9844,32.0469 C400.7656,32.0469 400.5625,32.125 400.375,32.3125 C399.9219,32.7969 399.9219,32.7969 399.7344,32.8906 C399.3125,33.1563 398.625,33.2813 397.8594,33.2813 C395.8125,33.2813 394.5156,32.1875 394.5156,30.4844 L394.5156,29.3906 C394.5156,27.6094 395.7656,26.2969 397.5,26.2969 C398.0781,26.2969 398.6875,26.4531 399.1563,26.7031 C399.6406,26.9844 399.8125,27.2031 399.9063,27.6094 C399.9688,28.0156 400,28.1406 400.1406,28.2656 C400.2813,28.4063 400.5156,28.5156 400.7344,28.5156 C401,28.5156 401.2656,28.375 401.4375,28.1563 C401.5469,28 401.5781,27.8125 401.5781,27.3906 L401.5781,25.9688 C401.5781,25.5313 401.5625,25.4063 401.4688,25.25 C401.3125,24.9844 401.0313,24.8438 400.7344,24.8438 C400.4375,24.8438 400.2344,24.9375 400.0156,25.25 L399.8438,25.1719 Z "/><text fill="#000000" font-family="sans-serif" font-size="12" lengthAdjust="spacingAndGlyphs" textLength="41" x="411.5" y="33.6543">Clase6</text><line style="stroke: #A80036; stroke-width: 1.5;" x1="383.5" x2="454.5" y1="45.5" y2="45.5"/><line style="stroke: #A80036; stroke-width: 1.5;" x1="383.5" x2="454.5" y1="53.5" y2="53.5"/><!--MD5=[c72f4fd27793ec7cd83ea4b8cb357ce8]
class Clase7--><rect fill="#FEFECE" filter="url(#f6gfsp5w3kkdd)" height="48" id="Clase7" style="stroke: #A80036; stroke-width: 1.5;" width="73" x="382.5" y="158"/><ellipse cx="397.5" cy="174" fill="#ADD1B2" rx="11" ry="11" style="stroke: #A80036; stroke-width: 1.0;"/><path d="M399.8438,169.6719 C398.9063,169.2344 398.3125,169.0938 397.4375,169.0938 C394.8125,169.0938 392.8125,171.1719 392.8125,173.8906 L392.8125,175.0156 C392.8125,177.5938 394.9219,179.4844 397.8125,179.4844 C399.0313,179.4844 400.1875,179.1875 400.9375,178.6406 C401.5156,178.2344 401.8438,177.7813 401.8438,177.3906 C401.8438,176.9375 401.4531,176.5469 400.9844,176.5469 C400.7656,176.5469 400.5625,176.625 400.375,176.8125 C399.9219,177.2969 399.9219,177.2969 399.7344,177.3906 C399.3125,177.6563 398.625,177.7813 397.8594,177.7813 C395.8125,177.7813 394.5156,176.6875 394.5156,174.9844 L394.5156,173.8906 C394.5156,172.1094 395.7656,170.7969 397.5,170.7969 C398.0781,170.7969 398.6875,170.9531 399.1563,171.2031 C399.6406,171.4844 399.8125,171.7031 399.9063,172.1094 C399.9688,172.5156 400,172.6406 400.1406,172.7656 C400.2813,172.9063 400.5156,173.0156 400.7344,173.0156 C401,173.0156 401.2656,172.875 401.4375,172.6563 C401.5469,172.5 401.5781,172.3125 401.5781,171.8906 L401.5781,170.4688 C401.5781,170.0313 401.5625,169.9063 401.4688,169.75 C401.3125,169.4844 401.0313,169.3438 400.7344,169.3438 C400.4375,169.3438 400.2344,169.4375 400.0156,169.75 L399.8438,169.6719 Z "/><text fill="#000000" font-family="sans-serif" font-size="12" lengthAdjust="spacingAndGlyphs" textLength="41" x="411.5" y="178.1543">Clase7</text><line style="stroke: #A80036; stroke-width: 1.5;" x1="383.5" x2="454.5" y1="190" y2="190"/><line style="stroke: #A80036; stroke-width: 1.5;" x1="383.5" x2="454.5" y1="198" y2="198"/><!--MD5=[10122a1f126d81ab36fc0b42701ded14]
reverse link Clase1 to Clase2--><path codeLine="10" d="M113.468,86.422 C104.4771,105.545 94.3008,127.1886 85.9543,144.9405 " fill="none" id="Clase1-backto-Clase2" style="stroke: #A80036; stroke-width: 1.0;"/><polygon fill="none" points="107.273,83.147,122.118,68.026,119.942,89.104,107.273,83.147" style="stroke: #A80036; stroke-width: 1.0;"/><!--MD5=[7a4b703868fe6fcb1a656cc6578c2a8d]
reverse link Clase1 to Clase3--><path codeLine="11" d="M158.425,86.196 C169.727,110.234 182.924,138.302 192.01,157.6261 " fill="none" id="Clase1-backto-Clase3" style="stroke: #A80036; stroke-width: 1.0;"/><polygon fill="none" points="152.058,89.104,149.882,68.026,164.727,83.147,152.058,89.104" style="stroke: #A80036; stroke-width: 1.0;"/><!--MD5=[caf964131a0fc7f1a4442e2bb29942e9]
reverse link Clase4 to Clase5--><path codeLine="13" d="M311,74.861 C311,100.955 311,135.3394 311,157.7977 " fill="none" id="Clase4-backto-Clase5" style="stroke: #A80036; stroke-width: 1.0;"/><polygon fill="#A80036" points="311,61.712,307,67.712,311,73.712,315,67.712,311,61.712" style="stroke: #A80036; stroke-width: 1.0;"/><text fill="#000000" font-family="sans-serif" font-size="13" lengthAdjust="spacingAndGlyphs" textLength="71" x="312" y="111.0669">agregación</text><text fill="#000000" font-family="sans-serif" font-size="13" lengthAdjust="spacingAndGlyphs" textLength="8" x="302.025" y="81.5249">1</text><text fill="#000000" font-family="sans-serif" font-size="13" lengthAdjust="spacingAndGlyphs" textLength="8" x="301.975" y="146.7579">n</text><!--MD5=[67dc1ece74063d072cf7232f55b00770]
reverse link Clase6 to Clase7--><path codeLine="14" d="M419,74.861 C419,100.955 419,135.3394 419,157.7977 " fill="none" id="Clase6-backto-Clase7" style="stroke: #A80036; stroke-width: 1.0;"/><polygon fill="#FFFFFF" points="419,61.712,415,67.712,419,73.712,423,67.712,419,61.712" style="stroke: #A80036; stroke-width: 1.0;"/><!--MD5=[c9a054540ee44697752884485d81dd42]
@startuml
class Clase1{
      toString()
}
 
class Clase2 {
      String[] elementos
      mostrarElementos()
}
 
Clase1 <|- - Clase2
Clase1 <|- - Clase3
 
Clase4 "1" *- - "n" Clase5 :agregación
Clase6 o- - Clase7
@enduml

PlantUML version 1.2020.18beta4(Unknown compile time)
(GPL source distribution)
Java Runtime: Java(TM) SE Runtime Environment
JVM: Java HotSpot(TM) 64-Bit Server VM
Default Encoding: UTF-8
Language: en
Country: US
--></g></svg>