<svg contentScriptType="application/ecmascript" contentStyleType="text/css" height="362px" preserveAspectRatio="none" style="width:409px;height:362px;" version="1.1" viewBox="0 0 409 362" width="409px" xmlns="http://www.w3.org/2000/svg" xmlns:xlink="http://www.w3.org/1999/xlink" zoomAndPan="magnify"><defs><filter height="300%" id="fp8gz8y7qiw5m" width="300%" x="-1" y="-1"><feGaussianBlur result="blurOut" stdDeviation="2.0"/><feColorMatrix in="blurOut" result="blurOut2" type="matrix" values="0 0 0 0 0 0 0 0 0 0 0 0 0 0 0 0 0 0 .4 0"/><feOffset dx="4.0" dy="4.0" in="blurOut2" result="blurOut3"/><feBlend in="SourceGraphic" in2="blurOut3" mode="normal"/></filter></defs><g><ellipse cx="76.5" cy="16" fill="#000000" filter="url(#fp8gz8y7qiw5m)" rx="10" ry="10" style="stroke: none; stroke-width: 1.0;"/><g id="Nacimiento"><rect fill="#FEFECE" filter="url(#fp8gz8y7qiw5m)" height="50.2656" rx="12.5" ry="12.5" style="stroke: #A80036; stroke-width: 1.5;" width="139" x="7" y="87"/><line style="stroke: #A80036; stroke-width: 1.5;" x1="7" x2="146" y1="113.2969" y2="113.2969"/><text fill="#000000" font-family="sans-serif" font-size="14" lengthAdjust="spacingAndGlyphs" textLength="82" x="35.5" y="104.9951">Nacimiento</text><text fill="#000000" font-family="sans-serif" font-size="12" lengthAdjust="spacingAndGlyphs" textLength="119" x="12" y="129.4355">sin preocupaciones</text></g><g id="Tropiezo"><rect fill="#FEFECE" filter="url(#fp8gz8y7qiw5m)" height="50.2656" rx="12.5" ry="12.5" style="stroke: #A80036; stroke-width: 1.5;" width="92" x="30.5" y="214"/><line style="stroke: #A80036; stroke-width: 1.5;" x1="30.5" x2="122.5" y1="240.2969" y2="240.2969"/><text fill="#000000" font-family="sans-serif" font-size="14" lengthAdjust="spacingAndGlyphs" textLength="64" x="44.5" y="231.9951">Tropiezo</text><text fill="#000000" font-family="sans-serif" font-size="12" lengthAdjust="spacingAndGlyphs" textLength="72" x="35.5" y="256.4355">se lió parda</text></g><g id="Muerte"><rect fill="#FEFECE" filter="url(#fp8gz8y7qiw5m)" height="50" rx="12.5" ry="12.5" style="stroke: #A80036; stroke-width: 1.5;" width="71" x="319" y="214"/><line style="stroke: #A80036; stroke-width: 1.5;" x1="319" x2="390" y1="240.2969" y2="240.2969"/><text fill="#000000" font-family="sans-serif" font-size="14" lengthAdjust="spacingAndGlyphs" textLength="51" x="329" y="231.9951">Muerte</text></g><ellipse cx="354.5" cy="335" fill="none" filter="url(#fp8gz8y7qiw5m)" rx="10" ry="10" style="stroke: #000000; stroke-width: 1.0;"/><ellipse cx="355" cy="335.5" fill="#000000" rx="6" ry="6" style="stroke: none; stroke-width: 1.0;"/><!--MD5=[0f59990dfa60aeea280648e3fbed20ca]
link *start to Nacimiento--><path d="M76.5,26.013 C76.5,38.698 76.5,62.409 76.5,81.57 " fill="none" id="*start-to-Nacimiento" style="stroke: #A80036; stroke-width: 1.0;"/><polygon fill="#A80036" points="76.5,86.84,80.5,77.84,76.5,81.84,72.5,77.84,76.5,86.84" style="stroke: #A80036; stroke-width: 1.0;"/><!--MD5=[bc92e8e58b6d95b75744ca2f732f9df0]
link Nacimiento to Tropiezo--><path d="M76.5,137.101 C76.5,157.593 76.5,187.076 76.5,208.884 " fill="none" id="Nacimiento-to-Tropiezo" style="stroke: #A80036; stroke-width: 1.0;"/><polygon fill="#A80036" points="76.5,213.973,80.5,204.973,76.5,208.973,72.5,204.973,76.5,213.973" style="stroke: #A80036; stroke-width: 1.0;"/><text fill="#000000" font-family="sans-serif" font-size="13" lengthAdjust="spacingAndGlyphs" textLength="49" x="77.5" y="180.0669">torpeza</text><!--MD5=[05a1c13652a85b2a57736a63b78b2884]
link Tropiezo to Muerte--><path d="M122.718,239 C176.007,239 262.779,239 313.675,239 " fill="none" id="Tropiezo-to-Muerte" style="stroke: #A80036; stroke-width: 1.0;"/><polygon fill="#A80036" points="318.789,239,309.789,235,313.789,239,309.789,243,318.789,239" style="stroke: #A80036; stroke-width: 1.0;"/><text fill="#000000" font-family="sans-serif" font-size="13" lengthAdjust="spacingAndGlyphs" textLength="160" x="140.75" y="232.0669">SAMUR no llega a tiempo</text><!--MD5=[7a3e41aea2c50791f2115171b9681cb6]
link Muerte to *end--><path d="M354.5,264.2073 C354.5,281.8423 354.5,305.1261 354.5,319.8351 " fill="none" id="Muerte-to-*end" style="stroke: #A80036; stroke-width: 1.0;"/><polygon fill="#A80036" points="354.5,324.8399,358.5,315.8399,354.5,319.8399,350.5,315.8399,354.5,324.8399" style="stroke: #A80036; stroke-width: 1.0;"/><!--MD5=[60bd4c0ab36b71f2aaeed2f10b9d55d1]
@startuml
[*] - -> Nacimiento
Nacimiento : sin preocupaciones
Tropiezo: se lió parda
Nacimiento - -> Tropiezo : torpeza
Tropiezo -> Muerte : SAMUR no llega a tiempo
Muerte - -> [*]
@enduml

PlantUML version 1.2020.18beta4(Unknown compile time)
(GPL source distribution)
Java Runtime: Java(TM) SE Runtime Environment
JVM: Java HotSpot(TM) 64-Bit Server VM
Default Encoding: UTF-8
Language: en
Country: US
--></g></svg>