<svg contentScriptType="application/ecmascript" contentStyleType="text/css" height="248px" preserveAspectRatio="none" style="width:228px;height:248px;" version="1.1" viewBox="0 0 228 248" width="228px" xmlns="http://www.w3.org/2000/svg" xmlns:xlink="http://www.w3.org/1999/xlink" zoomAndPan="magnify"><defs><filter height="300%" id="ff1a8xki9lot2" width="300%" x="-1" y="-1"><feGaussianBlur result="blurOut" stdDeviation="2.0"/><feColorMatrix in="blurOut" result="blurOut2" type="matrix" values="0 0 0 0 0 0 0 0 0 0 0 0 0 0 0 0 0 0 .4 0"/><feOffset dx="4.0" dy="4.0" in="blurOut2" result="blurOut3"/><feBlend in="SourceGraphic" in2="blurOut3" mode="normal"/></filter></defs><g><line style="stroke: #A80036; stroke-width: 1.0; stroke-dasharray: 5.0,5.0;" x1="56" x2="56" y1="38.2969" y2="200.5625"/><line style="stroke: #A80036; stroke-width: 1.0; stroke-dasharray: 5.0,5.0;" x1="163" x2="163" y1="38.2969" y2="200.5625"/><rect fill="#FEFECE" filter="url(#ff1a8xki9lot2)" height="30.2969" style="stroke: #A80036; stroke-width: 1.5;" width="93" x="8" y="3"/><text fill="#000000" font-family="sans-serif" font-size="14" lengthAdjust="spacingAndGlyphs" textLength="79" x="15" y="22.9951">Elemento1</text><rect fill="#FEFECE" filter="url(#ff1a8xki9lot2)" height="30.2969" style="stroke: #A80036; stroke-width: 1.5;" width="93" x="8" y="199.5625"/><text fill="#000000" font-family="sans-serif" font-size="14" lengthAdjust="spacingAndGlyphs" textLength="79" x="15" y="219.5576">Elemento1</text><rect fill="#FEFECE" filter="url(#ff1a8xki9lot2)" height="30.2969" style="stroke: #A80036; stroke-width: 1.5;" width="92" x="115" y="3"/><text fill="#000000" font-family="sans-serif" font-size="14" lengthAdjust="spacingAndGlyphs" textLength="78" x="122" y="22.9951">Elemento2</text><rect fill="#FEFECE" filter="url(#ff1a8xki9lot2)" height="30.2969" style="stroke: #A80036; stroke-width: 1.5;" width="92" x="115" y="199.5625"/><text fill="#000000" font-family="sans-serif" font-size="14" lengthAdjust="spacingAndGlyphs" textLength="78" x="122" y="219.5576">Elemento2</text><rect fill="#EEEEEE" filter="url(#ff1a8xki9lot2)" height="3" style="stroke: #EEEEEE; stroke-width: 1.0;" width="213" x="3" y="68.8633"/><line style="stroke: #000000; stroke-width: 1.0;" x1="3" x2="216" y1="68.8633" y2="68.8633"/><line style="stroke: #000000; stroke-width: 1.0;" x1="3" x2="216" y1="71.8633" y2="71.8633"/><rect fill="#EEEEEE" filter="url(#ff1a8xki9lot2)" height="23.1328" style="stroke: #000000; stroke-width: 2.0;" width="88" x="65.5" y="58.2969"/><text fill="#000000" font-family="sans-serif" font-size="13" font-weight="bold" lengthAdjust="spacingAndGlyphs" textLength="74" x="71.5" y="74.3638">Comienzo</text><line style="stroke: #A80036; stroke-width: 2.0;" x1="145" x2="155" y1="92.4297" y2="102.4297"/><line style="stroke: #A80036; stroke-width: 2.0;" x1="145" x2="155" y1="102.4297" y2="92.4297"/><line style="stroke: #A80036; stroke-width: 1.0;" x1="56.5" x2="150" y1="97.4297" y2="97.4297"/><polygon fill="#0000FF" points="67.5,107.4297,57.5,111.4297,67.5,111.4297" style="stroke: #0000FF; stroke-width: 1.0;"/><line style="stroke: #0000FF; stroke-width: 1.0; stroke-dasharray: 2.0,2.0;" x1="56.5" x2="162" y1="111.4297" y2="111.4297"/><polygon fill="#A80036" points="67.5,121.4297,57.5,125.4297,67.5,129.4297,63.5,125.4297" style="stroke: #A80036; stroke-width: 1.0;"/><polygon fill="#A80036" points="151,121.4297,161,125.4297,151,129.4297,155,125.4297" style="stroke: #A80036; stroke-width: 1.0;"/><line style="stroke: #A80036; stroke-width: 1.0;" x1="61.5" x2="157" y1="125.4297" y2="125.4297"/><rect fill="#EEEEEE" filter="url(#ff1a8xki9lot2)" height="3" style="stroke: #EEEEEE; stroke-width: 1.0;" width="213" x="3" y="153.9961"/><line style="stroke: #000000; stroke-width: 1.0;" x1="3" x2="216" y1="153.9961" y2="153.9961"/><line style="stroke: #000000; stroke-width: 1.0;" x1="3" x2="216" y1="156.9961" y2="156.9961"/><rect fill="#EEEEEE" filter="url(#ff1a8xki9lot2)" height="23.1328" style="stroke: #000000; stroke-width: 2.0;" width="54" x="82.5" y="143.4297"/><text fill="#000000" font-family="sans-serif" font-size="13" font-weight="bold" lengthAdjust="spacingAndGlyphs" textLength="35" x="88.5" y="159.4966">Final</text><ellipse cx="162.5" cy="181.8125" fill="none" rx="4" ry="4" style="stroke: #A80036; stroke-width: 1.5;"/><polygon fill="#A80036" points="145.5,178.5625,155.5,182.5625,145.5,186.5625,149.5,182.5625" style="stroke: #A80036; stroke-width: 1.0;"/><line style="stroke: #A80036; stroke-width: 1.0;" x1="56.5" x2="151.5" y1="182.5625" y2="182.5625"/><!--MD5=[9434aaed23501573b68aba42acdb668a]
@startuml
== Comienzo==
 
Elemento1 -X Elemento2
Elemento2 -[#0000FF]-\ Elemento1
Elemento2 <-> Elemento1
 
== Final ==
 
Elemento1 ->o Elemento2
@enduml

PlantUML version 1.2020.18beta4(Unknown compile time)
(GPL source distribution)
Java Runtime: Java(TM) SE Runtime Environment
JVM: Java HotSpot(TM) 64-Bit Server VM
Default Encoding: UTF-8
Language: en
Country: US
--></g></svg>