<svg contentScriptType="application/ecmascript" contentStyleType="text/css" height="392px" preserveAspectRatio="none" style="width:281px;height:392px;" version="1.1" viewBox="0 0 281 392" width="281px" xmlns="http://www.w3.org/2000/svg" xmlns:xlink="http://www.w3.org/1999/xlink" zoomAndPan="magnify"><defs><filter height="300%" id="f1f51bztdawj7u" width="300%" x="-1" y="-1"><feGaussianBlur result="blurOut" stdDeviation="2.0"/><feColorMatrix in="blurOut" result="blurOut2" type="matrix" values="0 0 0 0 0 0 0 0 0 0 0 0 0 0 0 0 0 0 .4 0"/><feOffset dx="4.0" dy="4.0" in="blurOut2" result="blurOut3"/><feBlend in="SourceGraphic" in2="blurOut3" mode="normal"/></filter></defs><g><line style="stroke: #A80036; stroke-width: 1.0; stroke-dasharray: 5.0,5.0;" x1="25" x2="25" y1="86.2969" y2="305.2266"/><line style="stroke: #A80036; stroke-width: 1.0; stroke-dasharray: 5.0,5.0;" x1="109.5" x2="109.5" y1="86.2969" y2="305.2266"/><line style="stroke: #A80036; stroke-width: 1.0; stroke-dasharray: 5.0,5.0;" x1="196.5" x2="196.5" y1="86.2969" y2="305.2266"/><text fill="#000000" font-family="sans-serif" font-size="14" lengthAdjust="spacingAndGlyphs" textLength="29" x="8" y="82.9951">Juan</text><ellipse cx="25.5" cy="13" fill="#FEFECE" filter="url(#f1f51bztdawj7u)" rx="8" ry="8" style="stroke: #A80036; stroke-width: 2.0;"/><path d="M25.5,21 L25.5,48 M12.5,29 L38.5,29 M25.5,48 L12.5,63 M25.5,48 L38.5,63 " fill="none" filter="url(#f1f51bztdawj7u)" style="stroke: #A80036; stroke-width: 2.0;"/><text fill="#000000" font-family="sans-serif" font-size="14" lengthAdjust="spacingAndGlyphs" textLength="29" x="8" y="317.2217">Juan</text><ellipse cx="25.5" cy="330.5234" fill="#FEFECE" filter="url(#f1f51bztdawj7u)" rx="8" ry="8" style="stroke: #A80036; stroke-width: 2.0;"/><path d="M25.5,338.5234 L25.5,365.5234 M12.5,346.5234 L38.5,346.5234 M25.5,365.5234 L12.5,380.5234 M25.5,365.5234 L38.5,380.5234 " fill="none" filter="url(#f1f51bztdawj7u)" style="stroke: #A80036; stroke-width: 2.0;"/><text fill="#000000" font-family="sans-serif" font-size="14" lengthAdjust="spacingAndGlyphs" textLength="96" x="58.5" y="82.9951">baseDeDatos</text><path d="M91.5,34 C91.5,24 109.5,24 109.5,24 C109.5,24 127.5,24 127.5,34 L127.5,60 C127.5,70 109.5,70 109.5,70 C109.5,70 91.5,70 91.5,60 L91.5,34 " fill="#008000" filter="url(#f1f51bztdawj7u)" style="stroke: #000000; stroke-width: 1.5;"/><path d="M91.5,34 C91.5,44 109.5,44 109.5,44 C109.5,44 127.5,44 127.5,34 " fill="none" style="stroke: #000000; stroke-width: 1.5;"/><text fill="#000000" font-family="sans-serif" font-size="14" lengthAdjust="spacingAndGlyphs" textLength="96" x="58.5" y="317.2217">baseDeDatos</text><path d="M91.5,330.5234 C91.5,320.5234 109.5,320.5234 109.5,320.5234 C109.5,320.5234 127.5,320.5234 127.5,330.5234 L127.5,356.5234 C127.5,366.5234 109.5,366.5234 109.5,366.5234 C109.5,366.5234 91.5,366.5234 91.5,356.5234 L91.5,330.5234 " fill="#008000" filter="url(#f1f51bztdawj7u)" style="stroke: #000000; stroke-width: 1.5;"/><path d="M91.5,330.5234 C91.5,340.5234 109.5,340.5234 109.5,340.5234 C109.5,340.5234 127.5,340.5234 127.5,330.5234 " fill="none" style="stroke: #000000; stroke-width: 1.5;"/><rect fill="#FEFECE" filter="url(#f1f51bztdawj7u)" height="30.2969" style="stroke: #A80036; stroke-width: 1.5;" width="48" x="170.5" y="51"/><text fill="#000000" font-family="sans-serif" font-size="14" lengthAdjust="spacingAndGlyphs" textLength="34" x="177.5" y="70.9951">Paco</text><rect fill="#FEFECE" filter="url(#f1f51bztdawj7u)" height="30.2969" style="stroke: #A80036; stroke-width: 1.5;" width="48" x="170.5" y="304.2266"/><text fill="#000000" font-family="sans-serif" font-size="14" lengthAdjust="spacingAndGlyphs" textLength="34" x="177.5" y="324.2217">Paco</text><polygon fill="#A80036" points="97.5,118.4297,107.5,122.4297,97.5,126.4297,101.5,122.4297" style="stroke: #A80036; stroke-width: 1.0;"/><line style="stroke: #A80036; stroke-width: 1.0;" x1="25.5" x2="103.5" y1="122.4297" y2="122.4297"/><text fill="#000000" font-family="sans-serif" font-size="13" lengthAdjust="spacingAndGlyphs" textLength="49" x="32.5" y="117.3638">saludas</text><path d="M114,101.2969 L114,126.2969 L186,126.2969 L186,111.2969 L176,101.2969 L114,101.2969 " fill="#FBFB77" filter="url(#f1f51bztdawj7u)" style="stroke: #A80036; stroke-width: 1.0;"/><path d="M176,101.2969 L176,111.2969 L186,111.2969 L176,101.2969 " fill="#FBFB77" style="stroke: #A80036; stroke-width: 1.0;"/><text fill="#000000" font-family="sans-serif" font-size="13" lengthAdjust="spacingAndGlyphs" textLength="51" x="120" y="118.3638">cortesía</text><polygon fill="#A80036" points="36.5,152.5625,26.5,156.5625,36.5,160.5625,32.5,156.5625" style="stroke: #A80036; stroke-width: 1.0;"/><line style="stroke: #A80036; stroke-width: 1.0; stroke-dasharray: 2.0,2.0;" x1="30.5" x2="108.5" y1="156.5625" y2="156.5625"/><text fill="#000000" font-family="sans-serif" font-size="13" lengthAdjust="spacingAndGlyphs" textLength="60" x="42.5" y="151.4966">responde</text><polygon fill="#A80036" points="184.5,181.6953,194.5,185.6953,184.5,189.6953,188.5,185.6953" style="stroke: #A80036; stroke-width: 1.0;"/><line style="stroke: #A80036; stroke-width: 1.0;" x1="25.5" x2="190.5" y1="185.6953" y2="185.6953"/><text fill="#000000" font-family="sans-serif" font-size="13" lengthAdjust="spacingAndGlyphs" textLength="42" x="32.5" y="180.6294">saluda</text><line style="stroke: #A80036; stroke-width: 1.0;" x1="196.5" x2="238.5" y1="245.0938" y2="245.0938"/><line style="stroke: #A80036; stroke-width: 1.0;" x1="238.5" x2="238.5" y1="245.0938" y2="258.0938"/><line style="stroke: #A80036; stroke-width: 1.0;" x1="197.5" x2="238.5" y1="258.0938" y2="258.0938"/><polygon fill="#A80036" points="207.5,254.0938,197.5,258.0938,207.5,262.0938,203.5,258.0938" style="stroke: #A80036; stroke-width: 1.0;"/><text fill="#000000" font-family="sans-serif" font-size="13" lengthAdjust="spacingAndGlyphs" textLength="62" x="203.5" y="209.7622">¿cómo se</text><text fill="#000000" font-family="sans-serif" font-size="13" lengthAdjust="spacingAndGlyphs" textLength="51" x="203.5" y="224.895">llamaba</text><text fill="#000000" font-family="sans-serif" font-size="13" lengthAdjust="spacingAndGlyphs" textLength="55" x="203.5" y="240.0278">este tío?</text><polygon fill="#A80036" points="36.5,283.2266,26.5,287.2266,36.5,291.2266,32.5,287.2266" style="stroke: #A80036; stroke-width: 1.0;"/><line style="stroke: #A80036; stroke-width: 1.0; stroke-dasharray: 2.0,2.0;" x1="30.5" x2="195.5" y1="287.2266" y2="287.2266"/><text fill="#000000" font-family="sans-serif" font-size="13" lengthAdjust="spacingAndGlyphs" textLength="60" x="42.5" y="282.1606">responde</text><!--MD5=[9c65e0119a3217664a9fecacb69f1551]
@startuml
actor Juan
database baseDeDatos #green

Juan -> baseDeDatos: saludas
note right: cortesía
Juan <- - baseDeDatos: responde

Juan -> Paco: saluda
Paco -> Paco: ¿cómo se \nllamaba \neste tío?
Juan <- - Paco: responde
@enduml

PlantUML version 1.2020.18beta4(Unknown compile time)
(GPL source distribution)
Java Runtime: Java(TM) SE Runtime Environment
JVM: Java HotSpot(TM) 64-Bit Server VM
Default Encoding: UTF-8
Language: en
Country: US
--></g></svg>