<svg contentScriptType="application/ecmascript" contentStyleType="text/css" height="182px" preserveAspectRatio="none" style="width:423px;height:182px;" version="1.1" viewBox="0 0 423 182" width="423px" xmlns="http://www.w3.org/2000/svg" xmlns:xlink="http://www.w3.org/1999/xlink" zoomAndPan="magnify"><defs><filter height="300%" id="f17li6h10y746w" width="300%" x="-1" y="-1"><feGaussianBlur result="blurOut" stdDeviation="2.0"/><feColorMatrix in="blurOut" result="blurOut2" type="matrix" values="0 0 0 0 0 0 0 0 0 0 0 0 0 0 0 0 0 0 .4 0"/><feOffset dx="4.0" dy="4.0" in="blurOut2" result="blurOut3"/><feBlend in="SourceGraphic" in2="blurOut3" mode="normal"/></filter></defs><g><!--MD5=[4e35f906c2a4d4856153a549eaaabe8e]
class Clase1--><rect fill="#FEFECE" filter="url(#f17li6h10y746w)" height="48" id="Clase1" style="stroke: #A80036; stroke-width: 1.5;" width="72" x="61.5" y="7"/><ellipse cx="76.5" cy="23" fill="#ADD1B2" rx="11" ry="11" style="stroke: #A80036; stroke-width: 1.0;"/><path d="M78.8438,18.6719 C77.9063,18.2344 77.3125,18.0938 76.4375,18.0938 C73.8125,18.0938 71.8125,20.1719 71.8125,22.8906 L71.8125,24.0156 C71.8125,26.5938 73.9219,28.4844 76.8125,28.4844 C78.0313,28.4844 79.1875,28.1875 79.9375,27.6406 C80.5156,27.2344 80.8438,26.7813 80.8438,26.3906 C80.8438,25.9375 80.4531,25.5469 79.9844,25.5469 C79.7656,25.5469 79.5625,25.625 79.375,25.8125 C78.9219,26.2969 78.9219,26.2969 78.7344,26.3906 C78.3125,26.6563 77.625,26.7813 76.8594,26.7813 C74.8125,26.7813 73.5156,25.6875 73.5156,23.9844 L73.5156,22.8906 C73.5156,21.1094 74.7656,19.7969 76.5,19.7969 C77.0781,19.7969 77.6875,19.9531 78.1563,20.2031 C78.6406,20.4844 78.8125,20.7031 78.9063,21.1094 C78.9688,21.5156 79,21.6406 79.1406,21.7656 C79.2813,21.9063 79.5156,22.0156 79.7344,22.0156 C80,22.0156 80.2656,21.875 80.4375,21.6563 C80.5469,21.5 80.5781,21.3125 80.5781,20.8906 L80.5781,19.4688 C80.5781,19.0313 80.5625,18.9063 80.4688,18.75 C80.3125,18.4844 80.0313,18.3438 79.7344,18.3438 C79.4375,18.3438 79.2344,18.4375 79.0156,18.75 L78.8438,18.6719 Z "/><text fill="#000000" font-family="sans-serif" font-size="12" lengthAdjust="spacingAndGlyphs" textLength="40" x="90.5" y="27.1543">Clase1</text><line style="stroke: #A80036; stroke-width: 1.5;" x1="62.5" x2="132.5" y1="39" y2="39"/><line style="stroke: #A80036; stroke-width: 1.5;" x1="62.5" x2="132.5" y1="47" y2="47"/><!--MD5=[0f41aec53022ad6042a2eb8f0445fa53]
class Clase2--><rect fill="#FEFECE" filter="url(#f17li6h10y746w)" height="48" id="Clase2" style="stroke: #A80036; stroke-width: 1.5;" width="73" x="7" y="115"/><ellipse cx="22" cy="131" fill="#ADD1B2" rx="11" ry="11" style="stroke: #A80036; stroke-width: 1.0;"/><path d="M24.3438,126.6719 C23.4063,126.2344 22.8125,126.0938 21.9375,126.0938 C19.3125,126.0938 17.3125,128.1719 17.3125,130.8906 L17.3125,132.0156 C17.3125,134.5938 19.4219,136.4844 22.3125,136.4844 C23.5313,136.4844 24.6875,136.1875 25.4375,135.6406 C26.0156,135.2344 26.3438,134.7813 26.3438,134.3906 C26.3438,133.9375 25.9531,133.5469 25.4844,133.5469 C25.2656,133.5469 25.0625,133.625 24.875,133.8125 C24.4219,134.2969 24.4219,134.2969 24.2344,134.3906 C23.8125,134.6563 23.125,134.7813 22.3594,134.7813 C20.3125,134.7813 19.0156,133.6875 19.0156,131.9844 L19.0156,130.8906 C19.0156,129.1094 20.2656,127.7969 22,127.7969 C22.5781,127.7969 23.1875,127.9531 23.6563,128.2031 C24.1406,128.4844 24.3125,128.7031 24.4063,129.1094 C24.4688,129.5156 24.5,129.6406 24.6406,129.7656 C24.7813,129.9063 25.0156,130.0156 25.2344,130.0156 C25.5,130.0156 25.7656,129.875 25.9375,129.6563 C26.0469,129.5 26.0781,129.3125 26.0781,128.8906 L26.0781,127.4688 C26.0781,127.0313 26.0625,126.9063 25.9688,126.75 C25.8125,126.4844 25.5313,126.3438 25.2344,126.3438 C24.9375,126.3438 24.7344,126.4375 24.5156,126.75 L24.3438,126.6719 Z "/><text fill="#000000" font-family="sans-serif" font-size="12" lengthAdjust="spacingAndGlyphs" textLength="41" x="36" y="135.1543">Clase2</text><line style="stroke: #A80036; stroke-width: 1.5;" x1="8" x2="79" y1="147" y2="147"/><line style="stroke: #A80036; stroke-width: 1.5;" x1="8" x2="79" y1="155" y2="155"/><!--MD5=[2c9ecc0a7368ed76df993a8b99fd7ad3]
class Clase3--><rect fill="#FEFECE" filter="url(#f17li6h10y746w)" height="48" id="Clase3" style="stroke: #A80036; stroke-width: 1.5;" width="73" x="115" y="115"/><ellipse cx="130" cy="131" fill="#ADD1B2" rx="11" ry="11" style="stroke: #A80036; stroke-width: 1.0;"/><path d="M132.3438,126.6719 C131.4063,126.2344 130.8125,126.0938 129.9375,126.0938 C127.3125,126.0938 125.3125,128.1719 125.3125,130.8906 L125.3125,132.0156 C125.3125,134.5938 127.4219,136.4844 130.3125,136.4844 C131.5313,136.4844 132.6875,136.1875 133.4375,135.6406 C134.0156,135.2344 134.3438,134.7813 134.3438,134.3906 C134.3438,133.9375 133.9531,133.5469 133.4844,133.5469 C133.2656,133.5469 133.0625,133.625 132.875,133.8125 C132.4219,134.2969 132.4219,134.2969 132.2344,134.3906 C131.8125,134.6563 131.125,134.7813 130.3594,134.7813 C128.3125,134.7813 127.0156,133.6875 127.0156,131.9844 L127.0156,130.8906 C127.0156,129.1094 128.2656,127.7969 130,127.7969 C130.5781,127.7969 131.1875,127.9531 131.6563,128.2031 C132.1406,128.4844 132.3125,128.7031 132.4063,129.1094 C132.4688,129.5156 132.5,129.6406 132.6406,129.7656 C132.7813,129.9063 133.0156,130.0156 133.2344,130.0156 C133.5,130.0156 133.7656,129.875 133.9375,129.6563 C134.0469,129.5 134.0781,129.3125 134.0781,128.8906 L134.0781,127.4688 C134.0781,127.0313 134.0625,126.9063 133.9688,126.75 C133.8125,126.4844 133.5313,126.3438 133.2344,126.3438 C132.9375,126.3438 132.7344,126.4375 132.5156,126.75 L132.3438,126.6719 Z "/><text fill="#000000" font-family="sans-serif" font-size="12" lengthAdjust="spacingAndGlyphs" textLength="41" x="144" y="135.1543">Clase3</text><line style="stroke: #A80036; stroke-width: 1.5;" x1="116" x2="187" y1="147" y2="147"/><line style="stroke: #A80036; stroke-width: 1.5;" x1="116" x2="187" y1="155" y2="155"/><!--MD5=[3d03710c9870b3fbccf94dcefe84f8f7]
class Clase4--><rect fill="#FEFECE" filter="url(#f17li6h10y746w)" height="48" id="Clase4" style="stroke: #A80036; stroke-width: 1.5;" width="73" x="223" y="7"/><ellipse cx="238" cy="23" fill="#ADD1B2" rx="11" ry="11" style="stroke: #A80036; stroke-width: 1.0;"/><path d="M240.3438,18.6719 C239.4063,18.2344 238.8125,18.0938 237.9375,18.0938 C235.3125,18.0938 233.3125,20.1719 233.3125,22.8906 L233.3125,24.0156 C233.3125,26.5938 235.4219,28.4844 238.3125,28.4844 C239.5313,28.4844 240.6875,28.1875 241.4375,27.6406 C242.0156,27.2344 242.3438,26.7813 242.3438,26.3906 C242.3438,25.9375 241.9531,25.5469 241.4844,25.5469 C241.2656,25.5469 241.0625,25.625 240.875,25.8125 C240.4219,26.2969 240.4219,26.2969 240.2344,26.3906 C239.8125,26.6563 239.125,26.7813 238.3594,26.7813 C236.3125,26.7813 235.0156,25.6875 235.0156,23.9844 L235.0156,22.8906 C235.0156,21.1094 236.2656,19.7969 238,19.7969 C238.5781,19.7969 239.1875,19.9531 239.6563,20.2031 C240.1406,20.4844 240.3125,20.7031 240.4063,21.1094 C240.4688,21.5156 240.5,21.6406 240.6406,21.7656 C240.7813,21.9063 241.0156,22.0156 241.2344,22.0156 C241.5,22.0156 241.7656,21.875 241.9375,21.6563 C242.0469,21.5 242.0781,21.3125 242.0781,20.8906 L242.0781,19.4688 C242.0781,19.0313 242.0625,18.9063 241.9688,18.75 C241.8125,18.4844 241.5313,18.3438 241.2344,18.3438 C240.9375,18.3438 240.7344,18.4375 240.5156,18.75 L240.3438,18.6719 Z "/><text fill="#000000" font-family="sans-serif" font-size="12" lengthAdjust="spacingAndGlyphs" textLength="41" x="252" y="27.1543">Clase4</text><line style="stroke: #A80036; stroke-width: 1.5;" x1="224" x2="295" y1="39" y2="39"/><line style="stroke: #A80036; stroke-width: 1.5;" x1="224" x2="295" y1="47" y2="47"/><!--MD5=[1f8c144c1c43692a2dc6bfa14b4c4c56]
class Clase5--><rect fill="#FEFECE" filter="url(#f17li6h10y746w)" height="48" id="Clase5" style="stroke: #A80036; stroke-width: 1.5;" width="73" x="223" y="115"/><ellipse cx="238" cy="131" fill="#ADD1B2" rx="11" ry="11" style="stroke: #A80036; stroke-width: 1.0;"/><path d="M240.3438,126.6719 C239.4063,126.2344 238.8125,126.0938 237.9375,126.0938 C235.3125,126.0938 233.3125,128.1719 233.3125,130.8906 L233.3125,132.0156 C233.3125,134.5938 235.4219,136.4844 238.3125,136.4844 C239.5313,136.4844 240.6875,136.1875 241.4375,135.6406 C242.0156,135.2344 242.3438,134.7813 242.3438,134.3906 C242.3438,133.9375 241.9531,133.5469 241.4844,133.5469 C241.2656,133.5469 241.0625,133.625 240.875,133.8125 C240.4219,134.2969 240.4219,134.2969 240.2344,134.3906 C239.8125,134.6563 239.125,134.7813 238.3594,134.7813 C236.3125,134.7813 235.0156,133.6875 235.0156,131.9844 L235.0156,130.8906 C235.0156,129.1094 236.2656,127.7969 238,127.7969 C238.5781,127.7969 239.1875,127.9531 239.6563,128.2031 C240.1406,128.4844 240.3125,128.7031 240.4063,129.1094 C240.4688,129.5156 240.5,129.6406 240.6406,129.7656 C240.7813,129.9063 241.0156,130.0156 241.2344,130.0156 C241.5,130.0156 241.7656,129.875 241.9375,129.6563 C242.0469,129.5 242.0781,129.3125 242.0781,128.8906 L242.0781,127.4688 C242.0781,127.0313 242.0625,126.9063 241.9688,126.75 C241.8125,126.4844 241.5313,126.3438 241.2344,126.3438 C240.9375,126.3438 240.7344,126.4375 240.5156,126.75 L240.3438,126.6719 Z "/><text fill="#000000" font-family="sans-serif" font-size="12" lengthAdjust="spacingAndGlyphs" textLength="41" x="252" y="135.1543">Clase5</text><line style="stroke: #A80036; stroke-width: 1.5;" x1="224" x2="295" y1="147" y2="147"/><line style="stroke: #A80036; stroke-width: 1.5;" x1="224" x2="295" y1="155" y2="155"/><!--MD5=[71afceb414046089c2fa0e9dda318570]
class Clase6--><rect fill="#FEFECE" filter="url(#f17li6h10y746w)" height="48" id="Clase6" style="stroke: #A80036; stroke-width: 1.5;" width="73" x="331" y="7"/><ellipse cx="346" cy="23" fill="#ADD1B2" rx="11" ry="11" style="stroke: #A80036; stroke-width: 1.0;"/><path d="M348.3438,18.6719 C347.4063,18.2344 346.8125,18.0938 345.9375,18.0938 C343.3125,18.0938 341.3125,20.1719 341.3125,22.8906 L341.3125,24.0156 C341.3125,26.5938 343.4219,28.4844 346.3125,28.4844 C347.5313,28.4844 348.6875,28.1875 349.4375,27.6406 C350.0156,27.2344 350.3438,26.7813 350.3438,26.3906 C350.3438,25.9375 349.9531,25.5469 349.4844,25.5469 C349.2656,25.5469 349.0625,25.625 348.875,25.8125 C348.4219,26.2969 348.4219,26.2969 348.2344,26.3906 C347.8125,26.6563 347.125,26.7813 346.3594,26.7813 C344.3125,26.7813 343.0156,25.6875 343.0156,23.9844 L343.0156,22.8906 C343.0156,21.1094 344.2656,19.7969 346,19.7969 C346.5781,19.7969 347.1875,19.9531 347.6563,20.2031 C348.1406,20.4844 348.3125,20.7031 348.4063,21.1094 C348.4688,21.5156 348.5,21.6406 348.6406,21.7656 C348.7813,21.9063 349.0156,22.0156 349.2344,22.0156 C349.5,22.0156 349.7656,21.875 349.9375,21.6563 C350.0469,21.5 350.0781,21.3125 350.0781,20.8906 L350.0781,19.4688 C350.0781,19.0313 350.0625,18.9063 349.9688,18.75 C349.8125,18.4844 349.5313,18.3438 349.2344,18.3438 C348.9375,18.3438 348.7344,18.4375 348.5156,18.75 L348.3438,18.6719 Z "/><text fill="#000000" font-family="sans-serif" font-size="12" lengthAdjust="spacingAndGlyphs" textLength="41" x="360" y="27.1543">Clase6</text><line style="stroke: #A80036; stroke-width: 1.5;" x1="332" x2="403" y1="39" y2="39"/><line style="stroke: #A80036; stroke-width: 1.5;" x1="332" x2="403" y1="47" y2="47"/><!--MD5=[c72f4fd27793ec7cd83ea4b8cb357ce8]
class Clase7--><rect fill="#FEFECE" filter="url(#f17li6h10y746w)" height="48" id="Clase7" style="stroke: #A80036; stroke-width: 1.5;" width="73" x="331" y="115"/><ellipse cx="346" cy="131" fill="#ADD1B2" rx="11" ry="11" style="stroke: #A80036; stroke-width: 1.0;"/><path d="M348.3438,126.6719 C347.4063,126.2344 346.8125,126.0938 345.9375,126.0938 C343.3125,126.0938 341.3125,128.1719 341.3125,130.8906 L341.3125,132.0156 C341.3125,134.5938 343.4219,136.4844 346.3125,136.4844 C347.5313,136.4844 348.6875,136.1875 349.4375,135.6406 C350.0156,135.2344 350.3438,134.7813 350.3438,134.3906 C350.3438,133.9375 349.9531,133.5469 349.4844,133.5469 C349.2656,133.5469 349.0625,133.625 348.875,133.8125 C348.4219,134.2969 348.4219,134.2969 348.2344,134.3906 C347.8125,134.6563 347.125,134.7813 346.3594,134.7813 C344.3125,134.7813 343.0156,133.6875 343.0156,131.9844 L343.0156,130.8906 C343.0156,129.1094 344.2656,127.7969 346,127.7969 C346.5781,127.7969 347.1875,127.9531 347.6563,128.2031 C348.1406,128.4844 348.3125,128.7031 348.4063,129.1094 C348.4688,129.5156 348.5,129.6406 348.6406,129.7656 C348.7813,129.9063 349.0156,130.0156 349.2344,130.0156 C349.5,130.0156 349.7656,129.875 349.9375,129.6563 C350.0469,129.5 350.0781,129.3125 350.0781,128.8906 L350.0781,127.4688 C350.0781,127.0313 350.0625,126.9063 349.9688,126.75 C349.8125,126.4844 349.5313,126.3438 349.2344,126.3438 C348.9375,126.3438 348.7344,126.4375 348.5156,126.75 L348.3438,126.6719 Z "/><text fill="#000000" font-family="sans-serif" font-size="12" lengthAdjust="spacingAndGlyphs" textLength="41" x="360" y="135.1543">Clase7</text><line style="stroke: #A80036; stroke-width: 1.5;" x1="332" x2="403" y1="147" y2="147"/><line style="stroke: #A80036; stroke-width: 1.5;" x1="332" x2="403" y1="155" y2="155"/><!--MD5=[10122a1f126d81ab36fc0b42701ded14]
reverse link Clase1 to Clase2--><path codeLine="1" d="M76.5655,73.0936 C69.3814,87.1958 61.5932,102.4838 55.3808,114.6784 " fill="none" id="Clase1-backto-Clase2" style="stroke: #A80036; stroke-width: 1.0;"/><polygon fill="none" points="70.467,69.6437,85.7828,55,82.9415,75.9987,70.467,69.6437" style="stroke: #A80036; stroke-width: 1.0;"/><!--MD5=[7a4b703868fe6fcb1a656cc6578c2a8d]
reverse link Clase1 to Clase3--><path codeLine="2" d="M118.434,73.0936 C125.619,87.1958 133.407,102.4838 139.619,114.6784 " fill="none" id="Clase1-backto-Clase3" style="stroke: #A80036; stroke-width: 1.0;"/><polygon fill="none" points="112.058,75.9987,109.217,55,124.533,69.6437,112.058,75.9987" style="stroke: #A80036; stroke-width: 1.0;"/><!--MD5=[caf964131a0fc7f1a4442e2bb29942e9]
reverse link Clase4 to Clase5--><path codeLine="3" d="M259.5,68.3383 C259.5,83.6813 259.5,101.098 259.5,114.6784 " fill="none" id="Clase4-backto-Clase5" style="stroke: #A80036; stroke-width: 1.0;"/><polygon fill="#A80036" points="259.5,55,255.5,61,259.5,67,263.5,61,259.5,55" style="stroke: #A80036; stroke-width: 1.0;"/><!--MD5=[67dc1ece74063d072cf7232f55b00770]
reverse link Clase6 to Clase7--><path codeLine="4" d="M367.5,68.3383 C367.5,83.6813 367.5,101.098 367.5,114.6784 " fill="none" id="Clase6-backto-Clase7" style="stroke: #A80036; stroke-width: 1.0;"/><polygon fill="#FFFFFF" points="367.5,55,363.5,61,367.5,67,371.5,61,367.5,55" style="stroke: #A80036; stroke-width: 1.0;"/><!--MD5=[f686f4118cd56aa6e0f5dfe96820b2d1]
@startuml
Clase1 <|- - Clase2
Clase1 <|- - Clase3
Clase4 *- - Clase5
Clase6 o- - Clase7
@enduml

PlantUML version 1.2020.18beta4(Unknown compile time)
(GPL source distribution)
Java Runtime: Java(TM) SE Runtime Environment
JVM: Java HotSpot(TM) 64-Bit Server VM
Default Encoding: UTF-8
Language: en
Country: US
--></g></svg>