<svg contentScriptType="application/ecmascript" contentStyleType="text/css" height="565px" preserveAspectRatio="none" style="width:529px;height:565px;" version="1.1" viewBox="0 0 529 565" width="529px" xmlns="http://www.w3.org/2000/svg" xmlns:xlink="http://www.w3.org/1999/xlink" zoomAndPan="magnify"><defs><filter height="300%" id="fhl9ccl381i8n" width="300%" x="-1" y="-1"><feGaussianBlur result="blurOut" stdDeviation="2.0"/><feColorMatrix in="blurOut" result="blurOut2" type="matrix" values="0 0 0 0 0 0 0 0 0 0 0 0 0 0 0 0 0 0 .4 0"/><feOffset dx="4.0" dy="4.0" in="blurOut2" result="blurOut3"/><feBlend in="SourceGraphic" in2="blurOut3" mode="normal"/></filter></defs><g><!--MD5=[262aabfe314dcb38308ea550cce12173]
cluster Some Group--><polygon fill="#FFFFFF" filter="url(#fhl9ccl381i8n)" points="16,6,120,6,127,28.2969,488,28.2969,488,103,16,103,16,6" style="stroke: #000000; stroke-width: 1.5;"/><line style="stroke: #000000; stroke-width: 1.5;" x1="16" x2="127" y1="28.2969" y2="28.2969"/><text fill="#000000" font-family="sans-serif" font-size="14" font-weight="bold" lengthAdjust="spacingAndGlyphs" textLength="98" x="20" y="20.9951">Some Group</text><!--MD5=[a809f7b457cbc4d947186a4bb863b06b]
cluster Other Groups--><polygon fill="#FFFFFF" filter="url(#fhl9ccl381i8n)" points="50,137,60,127,319,127,319,219,309,229,50,229,50,137" style="stroke: #000000; stroke-width: 1.5;"/><line style="stroke: #000000; stroke-width: 1.5;" x1="309" x2="319" y1="137" y2="127"/><line style="stroke: #000000; stroke-width: 1.5;" x1="50" x2="309" y1="137" y2="137"/><line style="stroke: #000000; stroke-width: 1.5;" x1="309" x2="309" y1="137" y2="229"/><text fill="#000000" font-family="sans-serif" font-size="14" font-weight="bold" lengthAdjust="spacingAndGlyphs" textLength="109" x="126" y="152.9951">Other Groups</text><path d="M351.8647,159.5676 C355.0864,153.6584 359.2459,152.4538 363.6322,158.413 C366.4061,152.8469 371.5107,153.2402 374.7408,157.9184 C378.0659,152.7551 382.6274,152.3311 386.0174,157.8499 C388.3786,152.155 392.5751,151.2379 396.8058,155.9031 C399.3718,150.8154 402.8914,150.3978 406.6964,154.5813 C410.2874,149.205 414.6602,148.1291 418.9905,153.7552 C423.1571,149.8941 427.0798,150.3987 428.6141,156.3395 C431.7567,150.688 436.8449,150.8694 440.5099,155.7494 C444.5408,150.298 449.1211,151.3466 452.0496,156.9049 C455.4354,152.5253 459.4669,152.6871 462.0405,157.763 C466.29,152.6298 470.8856,153.5767 474.037,159.0097 C477.2544,153.2919 481.8099,154.6547 484.9403,159.1029 C493.9524,161.7833 494.5176,169.2605 487.7706,174.7851 C497.5067,177.0423 500.5352,184.3328 493.2749,192.0185 C498.1892,198.0651 497.9073,204.1642 489.2264,206.3776 C496.3816,213.1098 492.561,220.4214 484.2688,222.3628 C481.2399,228.0137 476.7134,227.7333 472.8064,223.3677 C470.5198,229.4923 466.2599,230.1836 462.1671,225.0791 C458.5497,230.3795 453.0619,230.9078 450.1846,224.3324 C448.6172,228.9027 445.0552,229.9751 441.1842,227.1273 C438.1733,233.1196 433.5781,233.5296 429.364,228.4067 C426.333,234.1021 421.4348,234.4225 417.9245,228.8953 C414.8925,233.8161 410.2741,232.4219 408.1668,227.936 C403.3211,233.7492 397.8366,232.8023 395.2596,225.6735 C391.8945,231.0299 387.7328,230.4877 384.2835,225.7652 C380.7433,230.2839 377.0948,229.6254 374.4319,224.8366 C370.2976,229.4933 366.9484,229.2882 363.6889,223.901 C359.4247,227.8355 355.5981,228.0134 352.8853,222.1845 C345.3496,218.6226 343.2327,211.235 350.8334,205.7799 C344.5832,201.7734 343.0239,195.3753 350.5967,191.1452 C344.1257,185.9982 345.4113,179.9169 352.0578,176.0385 C344.4108,171.102 345.2795,164.671 351.8647,159.5676 " fill="#FFFFFF" filter="url(#fhl9ccl381i8n)" style="stroke: #000000; stroke-width: 1.5;"/><!--MD5=[a8e31809c94bd3920922c17a126bb0b3]
cluster MySql--><path d="M317,263 C317,253 417,253 417,253 C417,253 517,253 517,263 L517,543 C517,553 417,553 417,553 C417,553 317,553 317,543 L317,263 " fill="#FFFFFF" filter="url(#fhl9ccl381i8n)" style="stroke: #000000; stroke-width: 1.5;"/><path d="M317,263 C317,273 417,273 417,273 C417,273 517,273 517,263 " fill="none" style="stroke: #000000; stroke-width: 1.5;"/><text fill="#000000" font-family="sans-serif" font-size="14" font-weight="bold" lengthAdjust="spacingAndGlyphs" textLength="48" x="393" y="287.9951">MySql</text><!--MD5=[57a7dd60b0970f41fd8892a58576fbc8]
cluster This is my folder--><polygon fill="#FFFFFF" filter="url(#fhl9ccl381i8n)" points="341,311,483,311,490,333.2969,493,333.2969,493,408,341,408,341,311" style="stroke: #000000; stroke-width: 1.5;"/><line style="stroke: #000000; stroke-width: 1.5;" x1="341" x2="490" y1="333.2969" y2="333.2969"/><text fill="#000000" font-family="sans-serif" font-size="14" font-weight="bold" lengthAdjust="spacingAndGlyphs" textLength="136" x="345" y="325.9951">This is my folder</text><!--MD5=[b098bf3b49ab5940c6091a421f0675e2]
cluster Foo--><rect fill="#FFFFFF" filter="url(#fhl9ccl381i8n)" height="97" style="stroke: #000000; stroke-width: 1.5;" width="130" x="352" y="432"/><path d="M391,432 L391,441.2969 L381,451.2969 L352,451.2969 " fill="none" style="stroke: #000000; stroke-width: 1.5;"/><text fill="#000000" font-family="sans-serif" font-size="14" font-weight="bold" lengthAdjust="spacingAndGlyphs" textLength="29" x="355" y="445.9951">Foo</text><!--MD5=[96f7e1299d4a43069e6ed32352fcac20]
entity HTTP--><ellipse cx="238" cy="64" fill="#FEFECE" filter="url(#fhl9ccl381i8n)" rx="8" ry="8" style="stroke: #A80036; stroke-width: 1.5;"/><text fill="#000000" font-family="sans-serif" font-size="14" lengthAdjust="spacingAndGlyphs" textLength="37" x="219.5" y="93.9951">HTTP</text><!--MD5=[cbd7cda55f2530e2efe43ec72c097853]
entity First Component--><rect fill="#FEFECE" filter="url(#fhl9ccl381i8n)" height="46.2969" style="stroke: #A80036; stroke-width: 1.5;" width="162" x="32" y="41"/><rect fill="#FEFECE" height="10" style="stroke: #A80036; stroke-width: 1.5;" width="15" x="174" y="46"/><rect fill="#FEFECE" height="2" style="stroke: #A80036; stroke-width: 1.5;" width="4" x="172" y="48"/><rect fill="#FEFECE" height="2" style="stroke: #A80036; stroke-width: 1.5;" width="4" x="172" y="52"/><text fill="#000000" font-family="sans-serif" font-size="14" lengthAdjust="spacingAndGlyphs" textLength="122" x="47" y="73.9951">First Component</text><!--MD5=[b9d11f23832c1491231c5b33e55ab8c6]
entity Another Component--><rect fill="#FEFECE" filter="url(#fhl9ccl381i8n)" height="46.2969" style="stroke: #A80036; stroke-width: 1.5;" width="189" x="282.5" y="41"/><rect fill="#FEFECE" height="10" style="stroke: #A80036; stroke-width: 1.5;" width="15" x="451.5" y="46"/><rect fill="#FEFECE" height="2" style="stroke: #A80036; stroke-width: 1.5;" width="4" x="449.5" y="48"/><rect fill="#FEFECE" height="2" style="stroke: #A80036; stroke-width: 1.5;" width="4" x="449.5" y="52"/><text fill="#000000" font-family="sans-serif" font-size="14" lengthAdjust="spacingAndGlyphs" textLength="149" x="297.5" y="73.9951">Another Component</text><!--MD5=[76af18d92d7d7c0f7ebd8f4f605ac5aa]
entity FTP--><ellipse cx="75" cy="190" fill="#FEFECE" filter="url(#fhl9ccl381i8n)" rx="8" ry="8" style="stroke: #A80036; stroke-width: 1.5;"/><text fill="#000000" font-family="sans-serif" font-size="14" lengthAdjust="spacingAndGlyphs" textLength="26" x="62" y="219.9951">FTP</text><!--MD5=[0e2cc1aee2c7f52697e111b4fb84546c]
entity Second Component--><rect fill="#FEFECE" filter="url(#fhl9ccl381i8n)" height="46.2969" style="stroke: #A80036; stroke-width: 1.5;" width="183" x="119.5" y="167"/><rect fill="#FEFECE" height="10" style="stroke: #A80036; stroke-width: 1.5;" width="15" x="282.5" y="172"/><rect fill="#FEFECE" height="2" style="stroke: #A80036; stroke-width: 1.5;" width="4" x="280.5" y="174"/><rect fill="#FEFECE" height="2" style="stroke: #A80036; stroke-width: 1.5;" width="4" x="280.5" y="178"/><text fill="#000000" font-family="sans-serif" font-size="14" lengthAdjust="spacingAndGlyphs" textLength="143" x="134.5" y="199.9951">Second Component</text><!--MD5=[243c1e580c31013c48b02624e18b25a7]
entity Example 1--><rect fill="#FEFECE" filter="url(#fhl9ccl381i8n)" height="46.2969" style="stroke: #A80036; stroke-width: 1.5;" width="115" x="359.5" y="167"/><rect fill="#FEFECE" height="10" style="stroke: #A80036; stroke-width: 1.5;" width="15" x="454.5" y="172"/><rect fill="#FEFECE" height="2" style="stroke: #A80036; stroke-width: 1.5;" width="4" x="452.5" y="174"/><rect fill="#FEFECE" height="2" style="stroke: #A80036; stroke-width: 1.5;" width="4" x="452.5" y="178"/><text fill="#000000" font-family="sans-serif" font-size="14" lengthAdjust="spacingAndGlyphs" textLength="75" x="374.5" y="199.9951">Example 1</text><!--MD5=[3e0e08c92570480402984701ab5a6d2d]
entity Folder 3--><rect fill="#FEFECE" filter="url(#fhl9ccl381i8n)" height="46.2969" style="stroke: #A80036; stroke-width: 1.5;" width="98" x="368" y="346"/><rect fill="#FEFECE" height="10" style="stroke: #A80036; stroke-width: 1.5;" width="15" x="446" y="351"/><rect fill="#FEFECE" height="2" style="stroke: #A80036; stroke-width: 1.5;" width="4" x="444" y="353"/><rect fill="#FEFECE" height="2" style="stroke: #A80036; stroke-width: 1.5;" width="4" x="444" y="357"/><text fill="#000000" font-family="sans-serif" font-size="14" lengthAdjust="spacingAndGlyphs" textLength="58" x="383" y="378.9951">Folder 3</text><!--MD5=[63877ed85df621d134a6c80fb52dad56]
entity Frame 4--><rect fill="#FEFECE" filter="url(#fhl9ccl381i8n)" height="46.2969" style="stroke: #A80036; stroke-width: 1.5;" width="97" x="368.5" y="467"/><rect fill="#FEFECE" height="10" style="stroke: #A80036; stroke-width: 1.5;" width="15" x="445.5" y="472"/><rect fill="#FEFECE" height="2" style="stroke: #A80036; stroke-width: 1.5;" width="4" x="443.5" y="474"/><rect fill="#FEFECE" height="2" style="stroke: #A80036; stroke-width: 1.5;" width="4" x="443.5" y="478"/><text fill="#000000" font-family="sans-serif" font-size="14" lengthAdjust="spacingAndGlyphs" textLength="57" x="383.5" y="499.9951">Frame 4</text><!--MD5=[46d996859f59e5baf77956ce93023cee]
link HTTP to First Component--><path d="M228.73,64 C217.172,64 205.613,64 194.055,64 " fill="none" id="HTTP-First Component" style="stroke: #A80036; stroke-width: 1.0;"/><!--MD5=[1966a42bb49d59057147dbda06282f4b]
link FTP to Second Component--><path d="M84.0312,190 C95.7692,190 107.507,190 119.245,190 " fill="none" id="FTP-Second Component" style="stroke: #A80036; stroke-width: 1.0;"/><!--MD5=[d3aefbd8005e27b21e7ce98ddd948193]
link First Component to FTP--><path d="M106.206,87.169 C98.2949,112.985 85.487,154.779 79.0158,175.896 " fill="none" id="First Component-to-FTP" style="stroke: #A80036; stroke-width: 1.0;"/><polygon fill="#A80036" points="77.514,180.797,83.9765,173.3649,78.9797,176.0166,76.3279,171.0198,77.514,180.797" style="stroke: #A80036; stroke-width: 1.0;"/><!--MD5=[efc1ffe8b578a0fb156c7bce303319bb]
link Another Component to Example 1--><path d="M384.151,87.169 C390.878,108.023 400.969,139.302 408.189,161.687 " fill="none" id="Another Component-to-Example 1" style="stroke: #A80036; stroke-width: 1.0;"/><polygon fill="#A80036" points="409.776,166.605,410.8185,156.8115,408.2404,161.8467,403.2052,159.2685,409.776,166.605" style="stroke: #A80036; stroke-width: 1.0;"/><!--MD5=[7ec8393a78a133520e8846dd05a7857a]
link Example 1 to Folder 3--><path d="M417,213.059 C417,245.343 417,305.423 417,340.53 " fill="none" id="Example 1-to-Folder 3" style="stroke: #A80036; stroke-width: 1.0;"/><polygon fill="#A80036" points="417,345.941,421,336.941,417,340.941,413,336.941,417,345.941" style="stroke: #A80036; stroke-width: 1.0;"/><!--MD5=[b96c7096199393c1414a8b4e9ed2c30f]
link Folder 3 to Frame 4--><path d="M417,392.104 C417,411.685 417,440.351 417,461.426 " fill="none" id="Folder 3-to-Frame 4" style="stroke: #A80036; stroke-width: 1.0;"/><polygon fill="#A80036" points="417,466.61,421,457.61,417,461.61,413,457.61,417,466.61" style="stroke: #A80036; stroke-width: 1.0;"/><!--MD5=[e4673947c0c1148f55f99abc5261ff18]
@startuml
package "Some Group" {
  HTTP - [First Component]
  [Another Component]
}

node "Other Groups" {
  FTP - [Second Component]
  [First Component] - -> FTP
}

cloud {
  [Example 1]
}


database "MySql" {
  folder "This is my folder" {
    [Folder 3]
  }
  frame "Foo" {
    [Frame 4]
  }
}


[Another Component] - -> [Example 1]
[Example 1] - -> [Folder 3]
[Folder 3] - -> [Frame 4]
@enduml

PlantUML version 1.2020.18beta4(Unknown compile time)
(GPL source distribution)
Java Runtime: Java(TM) SE Runtime Environment
JVM: Java HotSpot(TM) 64-Bit Server VM
Default Encoding: UTF-8
Language: en
Country: US
--></g></svg>