<svg contentScriptType="application/ecmascript" contentStyleType="text/css" height="563px" preserveAspectRatio="none" style="width:510px;height:563px;" version="1.1" viewBox="0 0 510 563" width="510px" xmlns="http://www.w3.org/2000/svg" xmlns:xlink="http://www.w3.org/1999/xlink" zoomAndPan="magnify"><defs><filter height="300%" id="f1vbvizy0214fy" width="300%" x="-1" y="-1"><feGaussianBlur result="blurOut" stdDeviation="2.0"/><feColorMatrix in="blurOut" result="blurOut2" type="matrix" values="0 0 0 0 0 0 0 0 0 0 0 0 0 0 0 0 0 0 .4 0"/><feOffset dx="4.0" dy="4.0" in="blurOut2" result="blurOut3"/><feBlend in="SourceGraphic" in2="blurOut3" mode="normal"/></filter></defs><g><!--MD5=[ee873b70b9bbab7d744653cbbdc2994b]
cluster Tropiezo--><rect fill="#FEFECE" filter="url(#f1vbvizy0214fy)" height="136" rx="12.5" ry="12.5" style="stroke: #A80036; stroke-width: 1.5;" width="276" x="217.5" y="208"/><rect fill="#FFFFFF" height="103.7031" rx="12.5" ry="12.5" style="stroke: #FFFFFF; stroke-width: 1.0;" width="270" x="220.5" y="237.2969"/><line style="stroke: #A80036; stroke-width: 1.5;" x1="217.5" x2="493.5" y1="234.2969" y2="234.2969"/><text fill="#000000" font-family="sans-serif" font-size="14" lengthAdjust="spacingAndGlyphs" textLength="64" x="323.5" y="224.9951">Tropiezo</text><g id="Tropiezo.Agilidad"><rect fill="#FEFECE" filter="url(#f1vbvizy0214fy)" height="50.2656" rx="12.5" ry="12.5" style="stroke: #A80036; stroke-width: 1.5;" width="82" x="387.5" y="270"/><line style="stroke: #A80036; stroke-width: 1.5;" x1="387.5" x2="469.5" y1="296.2969" y2="296.2969"/><text fill="#000000" font-family="sans-serif" font-size="14" lengthAdjust="spacingAndGlyphs" textLength="57" x="400" y="287.9951">Agilidad</text><text fill="#000000" font-family="sans-serif" font-size="12" lengthAdjust="spacingAndGlyphs" textLength="62" x="392.5" y="312.4355">lo esquiva</text></g><g id="Tropiezo.Torpeza"><rect fill="#FEFECE" filter="url(#f1vbvizy0214fy)" height="50.2656" rx="12.5" ry="12.5" style="stroke: #A80036; stroke-width: 1.5;" width="92" x="260.5" y="270"/><line style="stroke: #A80036; stroke-width: 1.5;" x1="260.5" x2="352.5" y1="296.2969" y2="296.2969"/><text fill="#000000" font-family="sans-serif" font-size="14" lengthAdjust="spacingAndGlyphs" textLength="59" x="277" y="287.9951">Torpeza</text><text fill="#000000" font-family="sans-serif" font-size="12" lengthAdjust="spacingAndGlyphs" textLength="72" x="265.5" y="312.4355">se lio parda</text></g><ellipse cx="300.5" cy="16" fill="#000000" filter="url(#f1vbvizy0214fy)" rx="10" ry="10" style="stroke: none; stroke-width: 1.0;"/><g id="Nacimiento"><rect fill="#FEFECE" filter="url(#f1vbvizy0214fy)" height="50.2656" rx="12.5" ry="12.5" style="stroke: #A80036; stroke-width: 1.5;" width="139" x="231" y="87"/><line style="stroke: #A80036; stroke-width: 1.5;" x1="231" x2="370" y1="113.2969" y2="113.2969"/><text fill="#000000" font-family="sans-serif" font-size="14" lengthAdjust="spacingAndGlyphs" textLength="82" x="259.5" y="104.9951">Nacimiento</text><text fill="#000000" font-family="sans-serif" font-size="12" lengthAdjust="spacingAndGlyphs" textLength="119" x="236" y="129.4355">sin preocupaciones</text></g><g id="Vida"><rect fill="#FEFECE" filter="url(#f1vbvizy0214fy)" height="50" rx="12.5" ry="12.5" style="stroke: #A80036; stroke-width: 1.5;" width="51" x="7" y="270"/><line style="stroke: #A80036; stroke-width: 1.5;" x1="7" x2="58" y1="296.2969" y2="296.2969"/><text fill="#000000" font-family="sans-serif" font-size="14" lengthAdjust="spacingAndGlyphs" textLength="31" x="17" y="287.9951">Vida</text></g><g id="Muerte"><rect fill="#FEFECE" filter="url(#f1vbvizy0214fy)" height="50" rx="12.5" ry="12.5" style="stroke: #A80036; stroke-width: 1.5;" width="71" x="161" y="415"/><line style="stroke: #A80036; stroke-width: 1.5;" x1="161" x2="232" y1="441.2969" y2="441.2969"/><text fill="#000000" font-family="sans-serif" font-size="14" lengthAdjust="spacingAndGlyphs" textLength="51" x="171" y="432.9951">Muerte</text></g><ellipse cx="196.5" cy="536" fill="none" filter="url(#f1vbvizy0214fy)" rx="10" ry="10" style="stroke: #000000; stroke-width: 1.0;"/><ellipse cx="197" cy="536.5" fill="#000000" rx="6" ry="6" style="stroke: none; stroke-width: 1.0;"/><!--MD5=[0f59990dfa60aeea280648e3fbed20ca]
link *start to Nacimiento--><path d="M300.5,26.013 C300.5,38.698 300.5,62.409 300.5,81.57 " fill="none" id="*start-to-Nacimiento" style="stroke: #A80036; stroke-width: 1.0;"/><polygon fill="#A80036" points="300.5,86.84,304.5,77.84,300.5,81.84,296.5,77.84,300.5,86.84" style="stroke: #A80036; stroke-width: 1.0;"/><!--MD5=[bc92e8e58b6d95b75744ca2f732f9df0]
link Nacimiento to Tropiezo--><path d="M291.728,137.214 C285.277,152.249 275.235,171.097 261.5,184 C255.414,189.717 249.604,185.391 244.5,192 C241.0321,196.491 238.13,201.4211 235.7069,206.6143 C235.5555,206.9389 235.4059,207.2645 235.2582,207.5911 " fill="none" id="Nacimiento-to-Tropiezo" style="stroke: #A80036; stroke-width: 1.0;"/><polygon fill="#A80036" points="235.2582,207.5911,242.6118,201.0394,237.3188,203.0354,235.3228,197.7424,235.2582,207.5911" style="stroke: #A80036; stroke-width: 1.0;"/><text fill="#000000" font-family="sans-serif" font-size="13" lengthAdjust="spacingAndGlyphs" textLength="49" x="277.5" y="180.0669">torpeza</text><!--MD5=[c6c648b021a97faa3bd4c219858a9614]
link Agilidad to Vida--><path d="M422.034,269.641 C414.286,245.136 398.673,209.389 370.5,193 C308.649,157.019 278.625,174.508 209.5,193 C153.102,208.087 96.0508,245.945 62.5045,271.052 " fill="none" id="Agilidad-to-Vida" style="stroke: #A80036; stroke-width: 1.0;"/><polygon fill="#A80036" points="58.1303,274.353,67.7237,272.1245,62.1214,271.3411,62.9047,265.7388,58.1303,274.353" style="stroke: #A80036; stroke-width: 1.0;"/><text fill="#000000" font-family="sans-serif" font-size="13" lengthAdjust="spacingAndGlyphs" textLength="53" x="59" y="180.0669">felicidad</text><!--MD5=[b123492ba0d7d9c53a1138535c9af818]
link Torpeza to Muerte--><path d="M287.84,320.258 C268.64,345.219 238.744,384.083 218.427,410.495 " fill="none" id="Torpeza-to-Muerte" style="stroke: #A80036; stroke-width: 1.0;"/><polygon fill="#A80036" points="215.252,414.623,223.9101,409.9285,218.3007,410.66,217.5692,405.0506,215.252,414.623" style="stroke: #A80036; stroke-width: 1.0;"/><text fill="#000000" font-family="sans-serif" font-size="13" lengthAdjust="spacingAndGlyphs" textLength="160" x="249.5" y="381.0669">SAMUR no llega a tiempo</text><!--MD5=[277089f51ac37d776a991d4d4af179e1]
link Torpeza to Vida--><path d="M301.976,269.77 C296.113,245.365 283.276,209.695 256.5,193 C238.774,181.948 229.679,187.602 209.5,193 C153.102,208.087 96.0508,245.945 62.5045,271.052 " fill="none" id="Torpeza-to-Vida" style="stroke: #A80036; stroke-width: 1.0;"/><polygon fill="#A80036" points="58.1303,274.353,67.7237,272.1245,62.1214,271.3411,62.9047,265.7388,58.1303,274.353" style="stroke: #A80036; stroke-width: 1.0;"/><text fill="#000000" font-family="sans-serif" font-size="13" lengthAdjust="spacingAndGlyphs" textLength="140" x="119.5" y="180.0669">SAMUR llega a tiempo</text><!--MD5=[18f4d23ce6a9ad9e03e1d30da88afb5a]
link Vida to Muerte--><path d="M58.125,318.344 C86.9215,343.453 133.696,384.238 164.777,411.339 " fill="none" id="Vida-to-Muerte" style="stroke: #A80036; stroke-width: 1.0;"/><polygon fill="#A80036" points="168.865,414.904,164.7119,405.9736,165.097,411.6173,159.4533,412.0024,168.865,414.904" style="stroke: #A80036; stroke-width: 1.0;"/><!--MD5=[7a3e41aea2c50791f2115171b9681cb6]
link Muerte to *end--><path d="M196.5,465.2073 C196.5,482.8423 196.5,506.1261 196.5,520.8351 " fill="none" id="Muerte-to-*end" style="stroke: #A80036; stroke-width: 1.0;"/><polygon fill="#A80036" points="196.5,525.8399,200.5,516.8399,196.5,520.8399,192.5,516.8399,196.5,525.8399" style="stroke: #A80036; stroke-width: 1.0;"/><!--MD5=[4c4158cb254eee1ed141f19a17832f53]
@startuml
[*] - -> Nacimiento
Nacimiento : sin preocupaciones
state Tropiezo {
     Agilidad: lo esquiva
     Torpeza: se lio parda
}
Nacimiento - -> Tropiezo : torpeza
Agilidad -> Vida : felicidad
Torpeza -> Muerte : SAMUR no llega a tiempo
Torpeza -> Vida : SAMUR llega a tiempo
Vida - -> Muerte
Muerte - -> [*]
@enduml

PlantUML version 1.2020.18beta4(Unknown compile time)
(GPL source distribution)
Java Runtime: Java(TM) SE Runtime Environment
JVM: Java HotSpot(TM) 64-Bit Server VM
Default Encoding: UTF-8
Language: en
Country: US
--></g></svg>